M48
; DRILL file {KiCad 7.0.5} date Thu Jul 13 15:51:45 2023
; FORMAT={-:-/ absolute / metric / decimal}
; #@! TF.CreationDate,2023-07-13T15:51:45+01:00
; #@! TF.GenerationSoftware,Kicad,Pcbnew,7.0.5
; #@! TF.FileFunction,Plated,1,2,PTH
FMAT,2
METRIC
; #@! TA.AperFunction,Plated,PTH,ViaDrill
T1C0.400
; #@! TA.AperFunction,Plated,PTH,ComponentDrill
T2C0.700
; #@! TA.AperFunction,Plated,PTH,ComponentDrill
T3C0.800
; #@! TA.AperFunction,Plated,PTH,ComponentDrill
T4C1.000
; #@! TA.AperFunction,Plated,PTH,ComponentDrill
T5C1.100
%
G90
G05
T1
X85.007Y-75.024
X99.016Y-87.132
X104.457Y-146.944
X125.023Y-142.58
X132.772Y-74.604
X139.366Y-121.795
X139.862Y-123.334
X147.222Y-104.255
T2
X133.858Y-81.075
X134.181Y-68.445
X135.128Y-82.345
X135.451Y-69.715
X136.398Y-81.075
X136.721Y-68.445
X137.414Y-94.029
X138.684Y-95.299
X139.954Y-94.029
X143.129Y-115.111
X144.399Y-113.841
X145.669Y-115.111
X150.437Y-74.287
X151.072Y-88.384
X151.707Y-73.017
X152.342Y-87.114
X152.781Y-102.227
X152.977Y-74.287
X153.612Y-88.384
X154.051Y-100.957
X155.321Y-102.227
T3
X86.204Y-63.295
X86.995Y-67.232
X86.995Y-77.392
X86.995Y-80.186
X86.995Y-90.346
X87.11Y-93.024
X87.11Y-103.184
X87.21Y-106.129
X87.21Y-116.289
X87.249Y-119.048
X87.249Y-129.208
X87.376Y-132.637
X87.376Y-142.797
X89.94Y-102.814
X90.043Y-77.011
X90.043Y-89.838
X90.043Y-128.827
X90.05Y-115.909
X90.297Y-142.416
X91.03Y-95.464
X91.03Y-98.004
X91.196Y-82.721
X91.196Y-85.261
X91.323Y-69.894
X91.323Y-72.434
X91.323Y-121.583
X91.323Y-124.123
X91.45Y-108.629
X91.45Y-111.169
X91.567Y-135.05
X91.567Y-137.59
X96.364Y-63.295
X98.65Y-95.464
X98.65Y-98.004
X98.816Y-82.721
X98.816Y-85.261
X98.943Y-69.894
X98.943Y-72.434
X98.943Y-121.583
X98.943Y-124.123
X99.07Y-108.629
X99.07Y-111.169
X99.187Y-135.05
X99.187Y-137.59
X99.285Y-63.168
X100.1Y-102.814
X100.203Y-77.011
X100.203Y-89.838
X100.203Y-128.827
X100.21Y-115.909
X100.457Y-142.416
X102.94Y-93.094
X102.94Y-103.254
X102.997Y-80.186
X102.997Y-90.346
X103.124Y-67.359
X103.124Y-77.519
X103.124Y-119.048
X103.124Y-129.208
X103.18Y-106.179
X103.18Y-116.339
X103.378Y-132.637
X103.378Y-142.797
X109.22Y-91.616
X109.22Y-101.776
X109.445Y-63.168
X111.76Y-74.344
X111.887Y-65.073
X111.887Y-69.899
X111.887Y-78.789
X111.887Y-82.726
X112.014Y-87.425
X112.141Y-101.395
X112.913Y-94.278
X112.913Y-96.818
X113.255Y-53.643
X115.255Y-53.643
X119.126Y-53.643
X120.533Y-94.278
X120.533Y-96.818
X121.126Y-53.643
X121.92Y-74.344
X122.047Y-65.073
X122.047Y-69.899
X122.047Y-78.789
X122.047Y-82.726
X122.174Y-87.425
X122.301Y-101.395
X125.32Y-53.77
X125.349Y-91.743
X125.349Y-101.903
X126.746Y-78.916
X126.746Y-89.076
X126.885Y-66.228
X126.885Y-76.388
X127.32Y-53.77
X129.657Y-86.033
X129.657Y-88.573
X129.83Y-73.313
X129.83Y-75.853
X130.244Y-91.94
X130.244Y-102.1
X131.797Y-53.77
X132.715Y-61.517
X133.165Y-99.052
X133.165Y-101.592
X133.797Y-53.77
X137.277Y-86.033
X137.277Y-88.573
X137.45Y-73.313
X137.45Y-75.853
X138.684Y-107.11
X138.684Y-117.27
X140.462Y-78.789
X140.462Y-88.949
X140.474Y-66.228
X140.474Y-76.388
X140.785Y-99.052
X140.785Y-101.592
X141.996Y-107.486
X141.996Y-110.026
X142.875Y-61.517
X143.96Y-92.067
X143.96Y-102.227
X145.669Y-61.517
X146.685Y-66.216
X146.685Y-76.376
X147.193Y-80.44
X147.193Y-90.6
X148.775Y-94.283
X148.775Y-104.443
X149.616Y-107.486
X149.616Y-110.026
X149.743Y-66.719
X149.743Y-69.259
X150.378Y-80.943
X150.378Y-83.483
X151.96Y-94.786
X151.96Y-97.326
X152.781Y-106.983
X152.781Y-117.143
X155.829Y-61.517
X157.363Y-66.719
X157.363Y-69.259
X157.998Y-80.943
X157.998Y-83.483
X159.58Y-94.786
X159.58Y-97.326
X160.401Y-66.216
X160.401Y-76.376
X160.909Y-80.44
X160.909Y-90.6
X162.364Y-94.41
X162.364Y-104.57
T4
X108.452Y-109.56
X108.452Y-112.1
X108.452Y-114.64
X108.452Y-117.18
X108.452Y-119.72
X108.452Y-122.26
X108.452Y-124.8
X108.452Y-127.34
X108.452Y-129.88
X108.452Y-132.42
X108.452Y-134.96
X108.452Y-137.5
X108.452Y-140.04
X108.452Y-142.58
X108.452Y-145.12
X133.702Y-109.56
X133.702Y-112.1
X133.702Y-114.64
X133.702Y-117.18
X133.702Y-119.72
X133.702Y-122.26
X133.702Y-124.799
X133.702Y-127.34
X133.702Y-129.88
X133.702Y-132.42
X133.702Y-134.96
X133.702Y-137.5
X133.702Y-140.04
X133.702Y-142.58
X133.702Y-145.12
T5
X80.391Y-67.867
X80.391Y-70.407
X80.391Y-72.947
X80.391Y-75.487
X80.391Y-78.027
X80.391Y-80.567
X80.391Y-83.107
X80.418Y-92.929
X80.418Y-95.469
X80.418Y-98.009
X80.518Y-106.729
X80.518Y-109.269
X80.518Y-111.809
X80.518Y-114.349
X80.518Y-116.889
X80.518Y-119.429
X80.518Y-121.969
X87.927Y-150.828
X90.467Y-150.828
X95.252Y-53.658
X95.377Y-150.798
X97.792Y-53.658
X97.917Y-150.798
X100.332Y-53.658
X100.457Y-150.798
X102.997Y-150.798
X138.684Y-151.052
X141.224Y-151.052
X145.669Y-151.052
X146.177Y-53.445
X148.209Y-151.052
X148.717Y-53.445
X151.257Y-53.445
X152.781Y-151.179
X155.321Y-151.179
T0
M30
