G04 #@! TF.GenerationSoftware,KiCad,Pcbnew,7.0.5*
G04 #@! TF.CreationDate,2023-07-13T15:49:33+01:00*
G04 #@! TF.ProjectId,PCB,5043422e-6b69-4636-9164-5f7063625858,rev?*
G04 #@! TF.SameCoordinates,Original*
G04 #@! TF.FileFunction,Soldermask,Top*
G04 #@! TF.FilePolarity,Negative*
%FSLAX46Y46*%
G04 Gerber Fmt 4.6, Leading zero omitted, Abs format (unit mm)*
G04 Created by KiCad (PCBNEW 7.0.5) date 2023-07-13 15:49:33*
%MOMM*%
%LPD*%
G01*
G04 APERTURE LIST*
%ADD10C,2.000000*%
%ADD11C,1.600000*%
%ADD12O,1.600000X1.600000*%
%ADD13R,1.600000X1.600000*%
%ADD14O,1.600000X1.200000*%
%ADD15O,1.200000X1.200000*%
%ADD16R,1.905000X2.000000*%
%ADD17O,1.905000X2.000000*%
%ADD18C,1.100000*%
%ADD19R,2.200000X2.200000*%
%ADD20C,2.200000*%
G04 APERTURE END LIST*
D10*
G04 #@! TO.C,U9*
X108452000Y-109560450D03*
X108452000Y-112100450D03*
X108452000Y-114640450D03*
X108452000Y-117180450D03*
X108452000Y-119720450D03*
X108452000Y-122260450D03*
X108452000Y-124800450D03*
X108452000Y-127340450D03*
X108452000Y-129880450D03*
X108452000Y-132420450D03*
X108452000Y-134960450D03*
X108452000Y-137500450D03*
X108452000Y-140040450D03*
X108452000Y-142580450D03*
X108452000Y-145120450D03*
X133702000Y-109560450D03*
X133702000Y-112100450D03*
X133702000Y-114640450D03*
X133702000Y-117180450D03*
X133702000Y-119720450D03*
X133702000Y-122260450D03*
X133702000Y-124798950D03*
X133702000Y-127340450D03*
X133702000Y-129880450D03*
X133702000Y-132420450D03*
X133702000Y-134960450D03*
X133702000Y-137500450D03*
X133702000Y-140040450D03*
X133702000Y-142580450D03*
X133702000Y-145120450D03*
G04 #@! TD*
D11*
G04 #@! TO.C,R26*
X112014000Y-87425450D03*
D12*
X122174000Y-87425450D03*
G04 #@! TD*
D13*
G04 #@! TO.C,U13*
X137449600Y-75853050D03*
D12*
X137449600Y-73313050D03*
X129829600Y-73313050D03*
X129829600Y-75853050D03*
G04 #@! TD*
D11*
G04 #@! TO.C,R27*
X111887000Y-69899450D03*
D12*
X122047000Y-69899450D03*
G04 #@! TD*
D14*
G04 #@! TO.C,Q4*
X152977300Y-74286750D03*
D15*
X151707300Y-73016750D03*
X150437300Y-74286750D03*
G04 #@! TD*
D16*
G04 #@! TO.C,U1*
X95252100Y-53658450D03*
D17*
X97792100Y-53658450D03*
X100332100Y-53658450D03*
G04 #@! TD*
D11*
G04 #@! TO.C,R1*
X86995000Y-77392450D03*
D12*
X86995000Y-67232450D03*
G04 #@! TD*
D13*
G04 #@! TO.C,U11*
X140785300Y-101591750D03*
D12*
X140785300Y-99051750D03*
X133165300Y-99051750D03*
X133165300Y-101591750D03*
G04 #@! TD*
D11*
G04 #@! TO.C,R30*
X142875000Y-61517450D03*
D12*
X132715000Y-61517450D03*
G04 #@! TD*
D13*
G04 #@! TO.C,U6*
X91323000Y-121583450D03*
D12*
X91323000Y-124123450D03*
X98943000Y-124123450D03*
X98943000Y-121583450D03*
G04 #@! TD*
D14*
G04 #@! TO.C,Q6*
X155321000Y-102226750D03*
D15*
X154051000Y-100956750D03*
X152781000Y-102226750D03*
G04 #@! TD*
D11*
G04 #@! TO.C,R21*
X109220000Y-101776450D03*
D12*
X109220000Y-91616450D03*
G04 #@! TD*
D14*
G04 #@! TO.C,Q3*
X134181300Y-68444750D03*
D15*
X135451300Y-69714750D03*
X136721300Y-68444750D03*
G04 #@! TD*
D14*
G04 #@! TO.C,Q2*
X133858000Y-81075450D03*
D15*
X135128000Y-82345450D03*
X136398000Y-81075450D03*
G04 #@! TD*
D14*
G04 #@! TO.C,Q5*
X153612300Y-88383750D03*
D15*
X152342300Y-87113750D03*
X151072300Y-88383750D03*
G04 #@! TD*
D11*
G04 #@! TO.C,R23*
X111887000Y-65073450D03*
D12*
X122047000Y-65073450D03*
G04 #@! TD*
D11*
G04 #@! TO.C,R10*
X90050000Y-115909450D03*
D12*
X100210000Y-115909450D03*
G04 #@! TD*
D11*
G04 #@! TO.C,R6*
X87210000Y-116289450D03*
D12*
X87210000Y-106129450D03*
G04 #@! TD*
D11*
G04 #@! TO.C,R35*
X146685000Y-76376450D03*
D12*
X146685000Y-66216450D03*
G04 #@! TD*
D13*
G04 #@! TO.C,U5*
X91450000Y-108629450D03*
D12*
X91450000Y-111169450D03*
X99070000Y-111169450D03*
X99070000Y-108629450D03*
G04 #@! TD*
D13*
G04 #@! TO.C,C4*
X133797100Y-53770450D03*
D11*
X131797100Y-53770450D03*
G04 #@! TD*
D13*
G04 #@! TO.C,U4*
X91030000Y-95464450D03*
D12*
X91030000Y-98004450D03*
X98650000Y-98004450D03*
X98650000Y-95464450D03*
G04 #@! TD*
D11*
G04 #@! TO.C,R45*
X152781000Y-106983450D03*
D12*
X152781000Y-117143450D03*
G04 #@! TD*
D11*
G04 #@! TO.C,R34*
X140473600Y-66228050D03*
D12*
X140473600Y-76388050D03*
G04 #@! TD*
D13*
G04 #@! TO.C,U15*
X150378000Y-80943450D03*
D12*
X150378000Y-83483450D03*
X157998000Y-83483450D03*
X157998000Y-80943450D03*
G04 #@! TD*
D18*
G04 #@! TO.C,J5*
X152781000Y-153719450D03*
X155321000Y-153719450D03*
D19*
X152781000Y-151179450D03*
D20*
X155321000Y-151179450D03*
G04 #@! TD*
D13*
G04 #@! TO.C,U7*
X91567000Y-135050450D03*
D12*
X91567000Y-137590450D03*
X99187000Y-137590450D03*
X99187000Y-135050450D03*
G04 #@! TD*
D11*
G04 #@! TO.C,R25*
X112141000Y-101395450D03*
D12*
X122301000Y-101395450D03*
G04 #@! TD*
D11*
G04 #@! TO.C,R19*
X103124000Y-119048450D03*
D12*
X103124000Y-129208450D03*
G04 #@! TD*
D11*
G04 #@! TO.C,R9*
X87249000Y-119048450D03*
D12*
X87249000Y-129208450D03*
G04 #@! TD*
D11*
G04 #@! TO.C,R12*
X109445100Y-63168450D03*
D12*
X99285100Y-63168450D03*
G04 #@! TD*
D11*
G04 #@! TO.C,R33*
X140462000Y-78789450D03*
D12*
X140462000Y-88949450D03*
G04 #@! TD*
D11*
G04 #@! TO.C,R31*
X155829000Y-61517450D03*
D12*
X145669000Y-61517450D03*
G04 #@! TD*
D13*
G04 #@! TO.C,U12*
X137277000Y-88573450D03*
D12*
X137277000Y-86033450D03*
X129657000Y-86033450D03*
X129657000Y-88573450D03*
G04 #@! TD*
D11*
G04 #@! TO.C,R8*
X89940000Y-102814450D03*
D12*
X100100000Y-102814450D03*
G04 #@! TD*
D14*
G04 #@! TO.C,Q1*
X137414000Y-94029450D03*
D15*
X138684000Y-95299450D03*
X139954000Y-94029450D03*
G04 #@! TD*
D11*
G04 #@! TO.C,R11*
X90043000Y-128827450D03*
D12*
X100203000Y-128827450D03*
G04 #@! TD*
D11*
G04 #@! TO.C,R5*
X87110000Y-103184450D03*
D12*
X87110000Y-93024450D03*
G04 #@! TD*
D11*
G04 #@! TO.C,R14*
X103124000Y-77519450D03*
D12*
X103124000Y-67359450D03*
G04 #@! TD*
D11*
G04 #@! TO.C,R41*
X138684000Y-117270450D03*
D12*
X138684000Y-107110450D03*
G04 #@! TD*
D11*
G04 #@! TO.C,R17*
X102940000Y-93094450D03*
D12*
X102940000Y-103254450D03*
G04 #@! TD*
D11*
G04 #@! TO.C,R32*
X143960300Y-92066750D03*
D12*
X143960300Y-102226750D03*
G04 #@! TD*
D11*
G04 #@! TO.C,R24*
X111760000Y-74344450D03*
D12*
X121920000Y-74344450D03*
G04 #@! TD*
D13*
G04 #@! TO.C,C2*
X115255100Y-53643450D03*
D11*
X113255100Y-53643450D03*
G04 #@! TD*
G04 #@! TO.C,R13*
X87376000Y-132637450D03*
D12*
X87376000Y-142797450D03*
G04 #@! TD*
D13*
G04 #@! TO.C,U17*
X141996000Y-107486450D03*
D12*
X141996000Y-110026450D03*
X149616000Y-110026450D03*
X149616000Y-107486450D03*
G04 #@! TD*
D11*
G04 #@! TO.C,R44*
X162363700Y-94410450D03*
D12*
X162363700Y-104570450D03*
G04 #@! TD*
D11*
G04 #@! TO.C,R42*
X160401000Y-66216450D03*
D12*
X160401000Y-76376450D03*
G04 #@! TD*
D11*
G04 #@! TO.C,R29*
X125349000Y-101903450D03*
D12*
X125349000Y-91743450D03*
G04 #@! TD*
D11*
G04 #@! TO.C,R18*
X103180000Y-106179450D03*
D12*
X103180000Y-116339450D03*
G04 #@! TD*
D19*
G04 #@! TO.C,J3*
X80518000Y-106729450D03*
D20*
X80518000Y-109269450D03*
X80518000Y-111809450D03*
X80518000Y-114349450D03*
X80518000Y-116889450D03*
X80518000Y-119429450D03*
X80518000Y-121969450D03*
G04 #@! TD*
D18*
G04 #@! TO.C,J7*
X145669000Y-153592450D03*
X148209000Y-153592450D03*
D19*
X145669000Y-151052450D03*
D20*
X148209000Y-151052450D03*
G04 #@! TD*
D11*
G04 #@! TO.C,R28*
X111887000Y-78789450D03*
D12*
X122047000Y-78789450D03*
G04 #@! TD*
D13*
G04 #@! TO.C,U3*
X91196000Y-82721450D03*
D12*
X91196000Y-85261450D03*
X98816000Y-85261450D03*
X98816000Y-82721450D03*
G04 #@! TD*
D13*
G04 #@! TO.C,U16*
X151959700Y-94786450D03*
D12*
X151959700Y-97326450D03*
X159579700Y-97326450D03*
X159579700Y-94786450D03*
G04 #@! TD*
D11*
G04 #@! TO.C,R2*
X96364100Y-63295450D03*
D12*
X86204100Y-63295450D03*
G04 #@! TD*
D11*
G04 #@! TO.C,R3*
X90043000Y-77011450D03*
D12*
X100203000Y-77011450D03*
G04 #@! TD*
D11*
G04 #@! TO.C,R16*
X102997000Y-90346450D03*
D12*
X102997000Y-80186450D03*
G04 #@! TD*
D11*
G04 #@! TO.C,R37*
X148774700Y-104443450D03*
D12*
X148774700Y-94283450D03*
G04 #@! TD*
D11*
G04 #@! TO.C,R20*
X103378000Y-132637450D03*
D12*
X103378000Y-142797450D03*
G04 #@! TD*
D14*
G04 #@! TO.C,Q7*
X145669000Y-115111450D03*
D15*
X144399000Y-113841450D03*
X143129000Y-115111450D03*
G04 #@! TD*
D11*
G04 #@! TO.C,R7*
X90043000Y-89838450D03*
D12*
X100203000Y-89838450D03*
G04 #@! TD*
D19*
G04 #@! TO.C,J6*
X95377000Y-150798450D03*
D20*
X97917000Y-150798450D03*
X100457000Y-150798450D03*
X102997000Y-150798450D03*
G04 #@! TD*
D11*
G04 #@! TO.C,R43*
X160909000Y-80440450D03*
D12*
X160909000Y-90600450D03*
G04 #@! TD*
D11*
G04 #@! TO.C,R38*
X130244300Y-102099750D03*
D12*
X130244300Y-91939750D03*
G04 #@! TD*
D11*
G04 #@! TO.C,R40*
X126884600Y-76388050D03*
D12*
X126884600Y-66228050D03*
G04 #@! TD*
D13*
G04 #@! TO.C,U2*
X91323000Y-69894450D03*
D12*
X91323000Y-72434450D03*
X98943000Y-72434450D03*
X98943000Y-69894450D03*
G04 #@! TD*
D11*
G04 #@! TO.C,R22*
X111887000Y-82726450D03*
D12*
X122047000Y-82726450D03*
G04 #@! TD*
D19*
G04 #@! TO.C,J8*
X80391000Y-67867450D03*
D20*
X80391000Y-70407450D03*
X80391000Y-72947450D03*
X80391000Y-75487450D03*
X80391000Y-78027450D03*
X80391000Y-80567450D03*
X80391000Y-83107450D03*
G04 #@! TD*
D11*
G04 #@! TO.C,R39*
X126746000Y-89076450D03*
D12*
X126746000Y-78916450D03*
G04 #@! TD*
D13*
G04 #@! TO.C,C3*
X127320100Y-53770450D03*
D11*
X125320100Y-53770450D03*
G04 #@! TD*
D13*
G04 #@! TO.C,U8*
X112913000Y-94278450D03*
D12*
X112913000Y-96818450D03*
X120533000Y-96818450D03*
X120533000Y-94278450D03*
G04 #@! TD*
D13*
G04 #@! TO.C,C1*
X121126000Y-53643450D03*
D11*
X119126000Y-53643450D03*
G04 #@! TD*
D18*
G04 #@! TO.C,J2*
X77878000Y-92929450D03*
X77878000Y-95469450D03*
X77878000Y-98009450D03*
D19*
X80418000Y-92929450D03*
D20*
X80418000Y-95469450D03*
X80418000Y-98009450D03*
G04 #@! TD*
D11*
G04 #@! TO.C,R36*
X147193000Y-90600450D03*
D12*
X147193000Y-80440450D03*
G04 #@! TD*
D18*
G04 #@! TO.C,J1*
X87927000Y-153368450D03*
X90467000Y-153368450D03*
D19*
X87927000Y-150828450D03*
D20*
X90467000Y-150828450D03*
G04 #@! TD*
D13*
G04 #@! TO.C,U14*
X149743000Y-66719450D03*
D12*
X149743000Y-69259450D03*
X157363000Y-69259450D03*
X157363000Y-66719450D03*
G04 #@! TD*
D11*
G04 #@! TO.C,R4*
X86995000Y-90346450D03*
D12*
X86995000Y-80186450D03*
G04 #@! TD*
D18*
G04 #@! TO.C,J4*
X138684000Y-153592450D03*
X141224000Y-153592450D03*
D19*
X138684000Y-151052450D03*
D20*
X141224000Y-151052450D03*
G04 #@! TD*
D11*
G04 #@! TO.C,R15*
X90297000Y-142416450D03*
D12*
X100457000Y-142416450D03*
G04 #@! TD*
D16*
G04 #@! TO.C,U10*
X146177000Y-53445450D03*
D17*
X148717000Y-53445450D03*
X151257000Y-53445450D03*
G04 #@! TD*
M02*
