G04 #@! TF.GenerationSoftware,KiCad,Pcbnew,7.0.5*
G04 #@! TF.CreationDate,2023-07-13T15:49:31+01:00*
G04 #@! TF.ProjectId,PCB,5043422e-6b69-4636-9164-5f7063625858,rev?*
G04 #@! TF.SameCoordinates,Original*
G04 #@! TF.FileFunction,Copper,L1,Top*
G04 #@! TF.FilePolarity,Positive*
%FSLAX46Y46*%
G04 Gerber Fmt 4.6, Leading zero omitted, Abs format (unit mm)*
G04 Created by KiCad (PCBNEW 7.0.5) date 2023-07-13 15:49:31*
%MOMM*%
%LPD*%
G01*
G04 APERTURE LIST*
G04 #@! TA.AperFunction,ComponentPad*
%ADD10C,2.000000*%
G04 #@! TD*
G04 #@! TA.AperFunction,ComponentPad*
%ADD11C,1.600000*%
G04 #@! TD*
G04 #@! TA.AperFunction,ComponentPad*
%ADD12O,1.600000X1.600000*%
G04 #@! TD*
G04 #@! TA.AperFunction,ComponentPad*
%ADD13R,1.600000X1.600000*%
G04 #@! TD*
G04 #@! TA.AperFunction,ComponentPad*
%ADD14O,1.600000X1.200000*%
G04 #@! TD*
G04 #@! TA.AperFunction,ComponentPad*
%ADD15O,1.200000X1.200000*%
G04 #@! TD*
G04 #@! TA.AperFunction,ComponentPad*
%ADD16R,1.905000X2.000000*%
G04 #@! TD*
G04 #@! TA.AperFunction,ComponentPad*
%ADD17O,1.905000X2.000000*%
G04 #@! TD*
G04 #@! TA.AperFunction,ComponentPad*
%ADD18R,2.200000X2.200000*%
G04 #@! TD*
G04 #@! TA.AperFunction,ComponentPad*
%ADD19C,2.200000*%
G04 #@! TD*
G04 #@! TA.AperFunction,ViaPad*
%ADD20C,0.800000*%
G04 #@! TD*
G04 #@! TA.AperFunction,Conductor*
%ADD21C,0.250000*%
G04 #@! TD*
G04 APERTURE END LIST*
D10*
G04 #@! TO.P,U9,1,EN*
G04 #@! TO.N,Net-(J5-Pin_2)*
X108452000Y-109560450D03*
G04 #@! TO.P,U9,2,GPIO36*
G04 #@! TO.N,Net-(U9-GPIO36)*
X108452000Y-112100450D03*
G04 #@! TO.P,U9,3,GPIO39*
G04 #@! TO.N,Net-(U9-GPIO39)*
X108452000Y-114640450D03*
G04 #@! TO.P,U9,4,GPIO34*
G04 #@! TO.N,Net-(U9-GPIO34)*
X108452000Y-117180450D03*
G04 #@! TO.P,U9,5,GPIO35*
G04 #@! TO.N,Net-(U9-GPIO35)*
X108452000Y-119720450D03*
G04 #@! TO.P,U9,6,GPIO32*
G04 #@! TO.N,Net-(J1-Pin_1)*
X108452000Y-122260450D03*
G04 #@! TO.P,U9,7,GPIO33*
G04 #@! TO.N,Net-(J1-Pin_2)*
X108452000Y-124800450D03*
G04 #@! TO.P,U9,8,GPIO25*
G04 #@! TO.N,Net-(U9-GPIO25)*
X108452000Y-127340450D03*
G04 #@! TO.P,U9,9,GPIO26*
G04 #@! TO.N,Net-(U9-GPIO26)*
X108452000Y-129880450D03*
G04 #@! TO.P,U9,10,GPIO27*
G04 #@! TO.N,Net-(U9-GPIO27)*
X108452000Y-132420450D03*
G04 #@! TO.P,U9,11,GPIO14*
G04 #@! TO.N,Net-(J6-Pin_4)*
X108452000Y-134960450D03*
G04 #@! TO.P,U9,12,GPIO12*
G04 #@! TO.N,Net-(J6-Pin_3)*
X108452000Y-137500450D03*
G04 #@! TO.P,U9,13,GPIO13*
G04 #@! TO.N,Net-(J6-Pin_2)*
X108452000Y-140040450D03*
G04 #@! TO.P,U9,14,GND*
G04 #@! TO.N,GND*
X108452000Y-142580450D03*
G04 #@! TO.P,U9,15,VIN*
G04 #@! TO.N,Net-(U10-VO)*
X108452000Y-145120450D03*
G04 #@! TO.P,U9,16,GPIO23*
G04 #@! TO.N,Net-(U9-GPIO23)*
X133702000Y-109560450D03*
G04 #@! TO.P,U9,17,GPIO22*
G04 #@! TO.N,Net-(U9-GPIO22)*
X133702000Y-112100450D03*
G04 #@! TO.P,U9,18,GPIO1*
G04 #@! TO.N,Net-(J7-Pin_1)*
X133702000Y-114640450D03*
G04 #@! TO.P,U9,19,GPIO3*
G04 #@! TO.N,Net-(J7-Pin_2)*
X133702000Y-117180450D03*
G04 #@! TO.P,U9,20,GPIO21*
G04 #@! TO.N,Net-(U9-GPIO21)*
X133702000Y-119720450D03*
G04 #@! TO.P,U9,21,GPIO19*
G04 #@! TO.N,Net-(U9-GPIO19)*
X133702000Y-122260450D03*
G04 #@! TO.P,U9,22,GPIO18*
G04 #@! TO.N,Net-(U9-GPIO18)*
X133702000Y-124798950D03*
G04 #@! TO.P,U9,23,GPIO5*
G04 #@! TO.N,Net-(U9-GPIO5)*
X133702000Y-127340450D03*
G04 #@! TO.P,U9,24,GPIO17*
G04 #@! TO.N,Net-(U9-GPIO17)*
X133702000Y-129880450D03*
G04 #@! TO.P,U9,25,GPIO16*
G04 #@! TO.N,Net-(U9-GPIO16)*
X133702000Y-132420450D03*
G04 #@! TO.P,U9,26,GPIO4*
G04 #@! TO.N,Net-(J6-Pin_1)*
X133702000Y-134960450D03*
G04 #@! TO.P,U9,27,GPIO2*
G04 #@! TO.N,Net-(U9-GPIO2)*
X133702000Y-137500450D03*
G04 #@! TO.P,U9,28,GPIO15*
G04 #@! TO.N,Net-(U9-GPIO15)*
X133702000Y-140040450D03*
G04 #@! TO.P,U9,29,GND*
G04 #@! TO.N,GND*
X133702000Y-142580450D03*
G04 #@! TO.P,U9,30,3.3V*
G04 #@! TO.N,Net-(J5-Pin_1)*
X133702000Y-145120450D03*
G04 #@! TD*
D11*
G04 #@! TO.P,R26,1*
G04 #@! TO.N,GND*
X112014000Y-87425450D03*
D12*
G04 #@! TO.P,R26,2*
G04 #@! TO.N,Net-(U9-GPIO34)*
X122174000Y-87425450D03*
G04 #@! TD*
D13*
G04 #@! TO.P,U13,1*
G04 #@! TO.N,Net-(R34-Pad2)*
X137449600Y-75853050D03*
D12*
G04 #@! TO.P,U13,2*
G04 #@! TO.N,Net-(U9-GPIO21)*
X137449600Y-73313050D03*
G04 #@! TO.P,U13,3*
G04 #@! TO.N,GND*
X129829600Y-73313050D03*
G04 #@! TO.P,U13,4*
G04 #@! TO.N,Net-(Q3-B)*
X129829600Y-75853050D03*
G04 #@! TD*
D11*
G04 #@! TO.P,R27,1*
G04 #@! TO.N,GND*
X111887000Y-69899450D03*
D12*
G04 #@! TO.P,R27,2*
G04 #@! TO.N,Net-(U9-GPIO36)*
X122047000Y-69899450D03*
G04 #@! TD*
D14*
G04 #@! TO.P,Q4,1,E*
G04 #@! TO.N,Net-(J8-Pin_4)*
X152977300Y-74286750D03*
D15*
G04 #@! TO.P,Q4,2,B*
G04 #@! TO.N,Net-(Q4-B)*
X151707300Y-73016750D03*
G04 #@! TO.P,Q4,3,C*
G04 #@! TO.N,+24V*
X150437300Y-74286750D03*
G04 #@! TD*
D16*
G04 #@! TO.P,U1,1,ADJ*
G04 #@! TO.N,Net-(U1-ADJ)*
X95252100Y-53658450D03*
D17*
G04 #@! TO.P,U1,2,VO*
G04 #@! TO.N,Net-(U1-VO)*
X97792100Y-53658450D03*
G04 #@! TO.P,U1,3,VI*
G04 #@! TO.N,+24V*
X100332100Y-53658450D03*
G04 #@! TD*
D11*
G04 #@! TO.P,R1,1*
G04 #@! TO.N,+24V*
X86995000Y-77392450D03*
D12*
G04 #@! TO.P,R1,2*
G04 #@! TO.N,Net-(R1-Pad2)*
X86995000Y-67232450D03*
G04 #@! TD*
D13*
G04 #@! TO.P,U11,1*
G04 #@! TO.N,Net-(R32-Pad2)*
X140785300Y-101591750D03*
D12*
G04 #@! TO.P,U11,2*
G04 #@! TO.N,Net-(U9-GPIO23)*
X140785300Y-99051750D03*
G04 #@! TO.P,U11,3*
G04 #@! TO.N,GND*
X133165300Y-99051750D03*
G04 #@! TO.P,U11,4*
G04 #@! TO.N,Net-(Q1-B)*
X133165300Y-101591750D03*
G04 #@! TD*
D11*
G04 #@! TO.P,R30,1*
G04 #@! TO.N,Net-(U10-ADJ)*
X142875000Y-61517450D03*
D12*
G04 #@! TO.P,R30,2*
G04 #@! TO.N,GND*
X132715000Y-61517450D03*
G04 #@! TD*
D13*
G04 #@! TO.P,U6,1*
G04 #@! TO.N,Net-(R9-Pad2)*
X91323000Y-121583450D03*
D12*
G04 #@! TO.P,U6,2*
G04 #@! TO.N,Net-(J3-Pin_5)*
X91323000Y-124123450D03*
G04 #@! TO.P,U6,3*
G04 #@! TO.N,GND*
X98943000Y-124123450D03*
G04 #@! TO.P,U6,4*
G04 #@! TO.N,Net-(U9-GPIO15)*
X98943000Y-121583450D03*
G04 #@! TD*
D14*
G04 #@! TO.P,Q6,1,E*
G04 #@! TO.N,Net-(J8-Pin_6)*
X155321000Y-102226750D03*
D15*
G04 #@! TO.P,Q6,2,B*
G04 #@! TO.N,Net-(Q6-B)*
X154051000Y-100956750D03*
G04 #@! TO.P,Q6,3,C*
G04 #@! TO.N,+24V*
X152781000Y-102226750D03*
G04 #@! TD*
D11*
G04 #@! TO.P,R21,1*
G04 #@! TO.N,+24V*
X109220000Y-101776450D03*
D12*
G04 #@! TO.P,R21,2*
G04 #@! TO.N,Net-(R21-Pad2)*
X109220000Y-91616450D03*
G04 #@! TD*
D14*
G04 #@! TO.P,Q3,1,E*
G04 #@! TO.N,Net-(J8-Pin_3)*
X134181300Y-68444750D03*
D15*
G04 #@! TO.P,Q3,2,B*
G04 #@! TO.N,Net-(Q3-B)*
X135451300Y-69714750D03*
G04 #@! TO.P,Q3,3,C*
G04 #@! TO.N,+24V*
X136721300Y-68444750D03*
G04 #@! TD*
D14*
G04 #@! TO.P,Q2,1,E*
G04 #@! TO.N,Net-(J8-Pin_2)*
X133858000Y-81075450D03*
D15*
G04 #@! TO.P,Q2,2,B*
G04 #@! TO.N,Net-(Q2-B)*
X135128000Y-82345450D03*
G04 #@! TO.P,Q2,3,C*
G04 #@! TO.N,+24V*
X136398000Y-81075450D03*
G04 #@! TD*
D14*
G04 #@! TO.P,Q5,1,E*
G04 #@! TO.N,Net-(J8-Pin_5)*
X153612300Y-88383750D03*
D15*
G04 #@! TO.P,Q5,2,B*
G04 #@! TO.N,Net-(Q5-B)*
X152342300Y-87113750D03*
G04 #@! TO.P,Q5,3,C*
G04 #@! TO.N,+24V*
X151072300Y-88383750D03*
G04 #@! TD*
D11*
G04 #@! TO.P,R23,1*
G04 #@! TO.N,Net-(J2-Pin_1)*
X111887000Y-65073450D03*
D12*
G04 #@! TO.P,R23,2*
G04 #@! TO.N,Net-(U9-GPIO36)*
X122047000Y-65073450D03*
G04 #@! TD*
D11*
G04 #@! TO.P,R10,1*
G04 #@! TO.N,Net-(J3-Pin_4)*
X90050000Y-115909450D03*
D12*
G04 #@! TO.P,R10,2*
G04 #@! TO.N,GND*
X100210000Y-115909450D03*
G04 #@! TD*
D11*
G04 #@! TO.P,R6,1*
G04 #@! TO.N,+24V*
X87210000Y-116289450D03*
D12*
G04 #@! TO.P,R6,2*
G04 #@! TO.N,Net-(R6-Pad2)*
X87210000Y-106129450D03*
G04 #@! TD*
D11*
G04 #@! TO.P,R35,1*
G04 #@! TO.N,Net-(U1-VO)*
X146685000Y-76376450D03*
D12*
G04 #@! TO.P,R35,2*
G04 #@! TO.N,Net-(R35-Pad2)*
X146685000Y-66216450D03*
G04 #@! TD*
D13*
G04 #@! TO.P,U5,1*
G04 #@! TO.N,Net-(R6-Pad2)*
X91450000Y-108629450D03*
D12*
G04 #@! TO.P,U5,2*
G04 #@! TO.N,Net-(J3-Pin_4)*
X91450000Y-111169450D03*
G04 #@! TO.P,U5,3*
G04 #@! TO.N,GND*
X99070000Y-111169450D03*
G04 #@! TO.P,U5,4*
G04 #@! TO.N,Net-(U9-GPIO27)*
X99070000Y-108629450D03*
G04 #@! TD*
D13*
G04 #@! TO.P,C4,1*
G04 #@! TO.N,Net-(U10-VO)*
X133797100Y-53770450D03*
D11*
G04 #@! TO.P,C4,2*
G04 #@! TO.N,GND*
X131797100Y-53770450D03*
G04 #@! TD*
D13*
G04 #@! TO.P,U4,1*
G04 #@! TO.N,Net-(R5-Pad2)*
X91030000Y-95464450D03*
D12*
G04 #@! TO.P,U4,2*
G04 #@! TO.N,Net-(J3-Pin_3)*
X91030000Y-98004450D03*
G04 #@! TO.P,U4,3*
G04 #@! TO.N,GND*
X98650000Y-98004450D03*
G04 #@! TO.P,U4,4*
G04 #@! TO.N,Net-(U9-GPIO26)*
X98650000Y-95464450D03*
G04 #@! TD*
D11*
G04 #@! TO.P,R45,1*
G04 #@! TO.N,Net-(Q7-B)*
X152781000Y-106983450D03*
D12*
G04 #@! TO.P,R45,2*
G04 #@! TO.N,+24V*
X152781000Y-117143450D03*
G04 #@! TD*
D11*
G04 #@! TO.P,R34,1*
G04 #@! TO.N,Net-(U1-VO)*
X140473600Y-66228050D03*
D12*
G04 #@! TO.P,R34,2*
G04 #@! TO.N,Net-(R34-Pad2)*
X140473600Y-76388050D03*
G04 #@! TD*
D13*
G04 #@! TO.P,U15,1*
G04 #@! TO.N,Net-(R36-Pad2)*
X150378000Y-80943450D03*
D12*
G04 #@! TO.P,U15,2*
G04 #@! TO.N,Net-(U9-GPIO18)*
X150378000Y-83483450D03*
G04 #@! TO.P,U15,3*
G04 #@! TO.N,GND*
X157998000Y-83483450D03*
G04 #@! TO.P,U15,4*
G04 #@! TO.N,Net-(Q5-B)*
X157998000Y-80943450D03*
G04 #@! TD*
D18*
G04 #@! TO.P,J5,1,Pin_1*
G04 #@! TO.N,Net-(J5-Pin_1)*
X152781000Y-151179450D03*
D19*
G04 #@! TO.P,J5,2,Pin_2*
G04 #@! TO.N,Net-(J5-Pin_2)*
X155321000Y-151179450D03*
G04 #@! TD*
D13*
G04 #@! TO.P,U7,1*
G04 #@! TO.N,Net-(R13-Pad2)*
X91567000Y-135050450D03*
D12*
G04 #@! TO.P,U7,2*
G04 #@! TO.N,Net-(J3-Pin_6)*
X91567000Y-137590450D03*
G04 #@! TO.P,U7,3*
G04 #@! TO.N,GND*
X99187000Y-137590450D03*
G04 #@! TO.P,U7,4*
G04 #@! TO.N,Net-(U9-GPIO2)*
X99187000Y-135050450D03*
G04 #@! TD*
D11*
G04 #@! TO.P,R25,1*
G04 #@! TO.N,Net-(J3-Pin_7)*
X112141000Y-101395450D03*
D12*
G04 #@! TO.P,R25,2*
G04 #@! TO.N,GND*
X122301000Y-101395450D03*
G04 #@! TD*
D11*
G04 #@! TO.P,R19,1*
G04 #@! TO.N,Net-(U1-VO)*
X103124000Y-119048450D03*
D12*
G04 #@! TO.P,R19,2*
G04 #@! TO.N,Net-(U9-GPIO15)*
X103124000Y-129208450D03*
G04 #@! TD*
D11*
G04 #@! TO.P,R9,1*
G04 #@! TO.N,+24V*
X87249000Y-119048450D03*
D12*
G04 #@! TO.P,R9,2*
G04 #@! TO.N,Net-(R9-Pad2)*
X87249000Y-129208450D03*
G04 #@! TD*
D11*
G04 #@! TO.P,R12,1*
G04 #@! TO.N,Net-(U1-VO)*
X109445100Y-63168450D03*
D12*
G04 #@! TO.P,R12,2*
G04 #@! TO.N,Net-(U1-ADJ)*
X99285100Y-63168450D03*
G04 #@! TD*
D11*
G04 #@! TO.P,R33,1*
G04 #@! TO.N,Net-(U1-VO)*
X140462000Y-78789450D03*
D12*
G04 #@! TO.P,R33,2*
G04 #@! TO.N,Net-(R33-Pad2)*
X140462000Y-88949450D03*
G04 #@! TD*
D11*
G04 #@! TO.P,R31,1*
G04 #@! TO.N,Net-(U10-VO)*
X155829000Y-61517450D03*
D12*
G04 #@! TO.P,R31,2*
G04 #@! TO.N,Net-(U10-ADJ)*
X145669000Y-61517450D03*
G04 #@! TD*
D13*
G04 #@! TO.P,U12,1*
G04 #@! TO.N,Net-(R33-Pad2)*
X137277000Y-88573450D03*
D12*
G04 #@! TO.P,U12,2*
G04 #@! TO.N,Net-(U9-GPIO22)*
X137277000Y-86033450D03*
G04 #@! TO.P,U12,3*
G04 #@! TO.N,GND*
X129657000Y-86033450D03*
G04 #@! TO.P,U12,4*
G04 #@! TO.N,Net-(Q2-B)*
X129657000Y-88573450D03*
G04 #@! TD*
D11*
G04 #@! TO.P,R8,1*
G04 #@! TO.N,Net-(J3-Pin_3)*
X89940000Y-102814450D03*
D12*
G04 #@! TO.P,R8,2*
G04 #@! TO.N,GND*
X100100000Y-102814450D03*
G04 #@! TD*
D14*
G04 #@! TO.P,Q1,1,E*
G04 #@! TO.N,Net-(J8-Pin_1)*
X137414000Y-94029450D03*
D15*
G04 #@! TO.P,Q1,2,B*
G04 #@! TO.N,Net-(Q1-B)*
X138684000Y-95299450D03*
G04 #@! TO.P,Q1,3,C*
G04 #@! TO.N,+24V*
X139954000Y-94029450D03*
G04 #@! TD*
D11*
G04 #@! TO.P,R11,1*
G04 #@! TO.N,Net-(J3-Pin_5)*
X90043000Y-128827450D03*
D12*
G04 #@! TO.P,R11,2*
G04 #@! TO.N,GND*
X100203000Y-128827450D03*
G04 #@! TD*
D11*
G04 #@! TO.P,R5,1*
G04 #@! TO.N,+24V*
X87110000Y-103184450D03*
D12*
G04 #@! TO.P,R5,2*
G04 #@! TO.N,Net-(R5-Pad2)*
X87110000Y-93024450D03*
G04 #@! TD*
D11*
G04 #@! TO.P,R14,1*
G04 #@! TO.N,Net-(U1-VO)*
X103124000Y-77519450D03*
D12*
G04 #@! TO.P,R14,2*
G04 #@! TO.N,Net-(U9-GPIO35)*
X103124000Y-67359450D03*
G04 #@! TD*
D11*
G04 #@! TO.P,R41,1*
G04 #@! TO.N,Net-(U1-VO)*
X138684000Y-117270450D03*
D12*
G04 #@! TO.P,R41,2*
G04 #@! TO.N,Net-(R41-Pad2)*
X138684000Y-107110450D03*
G04 #@! TD*
D11*
G04 #@! TO.P,R17,1*
G04 #@! TO.N,Net-(U1-VO)*
X102940000Y-93094450D03*
D12*
G04 #@! TO.P,R17,2*
G04 #@! TO.N,Net-(U9-GPIO26)*
X102940000Y-103254450D03*
G04 #@! TD*
D11*
G04 #@! TO.P,R32,1*
G04 #@! TO.N,Net-(U1-VO)*
X143960300Y-92066750D03*
D12*
G04 #@! TO.P,R32,2*
G04 #@! TO.N,Net-(R32-Pad2)*
X143960300Y-102226750D03*
G04 #@! TD*
D11*
G04 #@! TO.P,R24,1*
G04 #@! TO.N,Net-(J2-Pin_2)*
X111760000Y-74344450D03*
D12*
G04 #@! TO.P,R24,2*
G04 #@! TO.N,Net-(U9-GPIO39)*
X121920000Y-74344450D03*
G04 #@! TD*
D13*
G04 #@! TO.P,C2,1*
G04 #@! TO.N,Net-(U1-VO)*
X115255100Y-53643450D03*
D11*
G04 #@! TO.P,C2,2*
G04 #@! TO.N,GND*
X113255100Y-53643450D03*
G04 #@! TD*
G04 #@! TO.P,R13,1*
G04 #@! TO.N,+24V*
X87376000Y-132637450D03*
D12*
G04 #@! TO.P,R13,2*
G04 #@! TO.N,Net-(R13-Pad2)*
X87376000Y-142797450D03*
G04 #@! TD*
D13*
G04 #@! TO.P,U17,1*
G04 #@! TO.N,Net-(R41-Pad2)*
X141996000Y-107486450D03*
D12*
G04 #@! TO.P,U17,2*
G04 #@! TO.N,Net-(U9-GPIO17)*
X141996000Y-110026450D03*
G04 #@! TO.P,U17,3*
G04 #@! TO.N,GND*
X149616000Y-110026450D03*
G04 #@! TO.P,U17,4*
G04 #@! TO.N,Net-(Q7-B)*
X149616000Y-107486450D03*
G04 #@! TD*
D11*
G04 #@! TO.P,R44,1*
G04 #@! TO.N,Net-(Q6-B)*
X162363700Y-94410450D03*
D12*
G04 #@! TO.P,R44,2*
G04 #@! TO.N,+24V*
X162363700Y-104570450D03*
G04 #@! TD*
D11*
G04 #@! TO.P,R42,1*
G04 #@! TO.N,Net-(Q4-B)*
X160401000Y-66216450D03*
D12*
G04 #@! TO.P,R42,2*
G04 #@! TO.N,+24V*
X160401000Y-76376450D03*
G04 #@! TD*
D11*
G04 #@! TO.P,R29,1*
G04 #@! TO.N,Net-(U1-VO)*
X125349000Y-101903450D03*
D12*
G04 #@! TO.P,R29,2*
G04 #@! TO.N,Net-(U9-GPIO16)*
X125349000Y-91743450D03*
G04 #@! TD*
D11*
G04 #@! TO.P,R18,1*
G04 #@! TO.N,Net-(U1-VO)*
X103180000Y-106179450D03*
D12*
G04 #@! TO.P,R18,2*
G04 #@! TO.N,Net-(U9-GPIO27)*
X103180000Y-116339450D03*
G04 #@! TD*
D18*
G04 #@! TO.P,J3,1,Pin_1*
G04 #@! TO.N,Net-(J3-Pin_1)*
X80518000Y-106729450D03*
D19*
G04 #@! TO.P,J3,2,Pin_2*
G04 #@! TO.N,Net-(J3-Pin_2)*
X80518000Y-109269450D03*
G04 #@! TO.P,J3,3,Pin_3*
G04 #@! TO.N,Net-(J3-Pin_3)*
X80518000Y-111809450D03*
G04 #@! TO.P,J3,4,Pin_4*
G04 #@! TO.N,Net-(J3-Pin_4)*
X80518000Y-114349450D03*
G04 #@! TO.P,J3,5,Pin_5*
G04 #@! TO.N,Net-(J3-Pin_5)*
X80518000Y-116889450D03*
G04 #@! TO.P,J3,6,Pin_6*
G04 #@! TO.N,Net-(J3-Pin_6)*
X80518000Y-119429450D03*
G04 #@! TO.P,J3,7,Pin_7*
G04 #@! TO.N,Net-(J3-Pin_7)*
X80518000Y-121969450D03*
G04 #@! TD*
D18*
G04 #@! TO.P,J7,1,Pin_1*
G04 #@! TO.N,Net-(J7-Pin_1)*
X145669000Y-151052450D03*
D19*
G04 #@! TO.P,J7,2,Pin_2*
G04 #@! TO.N,Net-(J7-Pin_2)*
X148209000Y-151052450D03*
G04 #@! TD*
D11*
G04 #@! TO.P,R28,1*
G04 #@! TO.N,GND*
X111887000Y-78789450D03*
D12*
G04 #@! TO.P,R28,2*
G04 #@! TO.N,Net-(U9-GPIO39)*
X122047000Y-78789450D03*
G04 #@! TD*
D13*
G04 #@! TO.P,U3,1*
G04 #@! TO.N,Net-(R4-Pad2)*
X91196000Y-82721450D03*
D12*
G04 #@! TO.P,U3,2*
G04 #@! TO.N,Net-(J3-Pin_2)*
X91196000Y-85261450D03*
G04 #@! TO.P,U3,3*
G04 #@! TO.N,GND*
X98816000Y-85261450D03*
G04 #@! TO.P,U3,4*
G04 #@! TO.N,Net-(U9-GPIO25)*
X98816000Y-82721450D03*
G04 #@! TD*
D13*
G04 #@! TO.P,U16,1*
G04 #@! TO.N,Net-(R37-Pad2)*
X151959700Y-94786450D03*
D12*
G04 #@! TO.P,U16,2*
G04 #@! TO.N,Net-(U9-GPIO5)*
X151959700Y-97326450D03*
G04 #@! TO.P,U16,3*
G04 #@! TO.N,GND*
X159579700Y-97326450D03*
G04 #@! TO.P,U16,4*
G04 #@! TO.N,Net-(Q6-B)*
X159579700Y-94786450D03*
G04 #@! TD*
D11*
G04 #@! TO.P,R2,1*
G04 #@! TO.N,Net-(U1-ADJ)*
X96364100Y-63295450D03*
D12*
G04 #@! TO.P,R2,2*
G04 #@! TO.N,GND*
X86204100Y-63295450D03*
G04 #@! TD*
D11*
G04 #@! TO.P,R3,1*
G04 #@! TO.N,Net-(J3-Pin_1)*
X90043000Y-77011450D03*
D12*
G04 #@! TO.P,R3,2*
G04 #@! TO.N,GND*
X100203000Y-77011450D03*
G04 #@! TD*
D11*
G04 #@! TO.P,R16,1*
G04 #@! TO.N,Net-(U1-VO)*
X102997000Y-90346450D03*
D12*
G04 #@! TO.P,R16,2*
G04 #@! TO.N,Net-(U9-GPIO25)*
X102997000Y-80186450D03*
G04 #@! TD*
D11*
G04 #@! TO.P,R37,1*
G04 #@! TO.N,Net-(U1-VO)*
X148774700Y-104443450D03*
D12*
G04 #@! TO.P,R37,2*
G04 #@! TO.N,Net-(R37-Pad2)*
X148774700Y-94283450D03*
G04 #@! TD*
D11*
G04 #@! TO.P,R20,1*
G04 #@! TO.N,Net-(U1-VO)*
X103378000Y-132637450D03*
D12*
G04 #@! TO.P,R20,2*
G04 #@! TO.N,Net-(U9-GPIO2)*
X103378000Y-142797450D03*
G04 #@! TD*
D14*
G04 #@! TO.P,Q7,1,E*
G04 #@! TO.N,Net-(J8-Pin_7)*
X145669000Y-115111450D03*
D15*
G04 #@! TO.P,Q7,2,B*
G04 #@! TO.N,Net-(Q7-B)*
X144399000Y-113841450D03*
G04 #@! TO.P,Q7,3,C*
G04 #@! TO.N,+24V*
X143129000Y-115111450D03*
G04 #@! TD*
D11*
G04 #@! TO.P,R7,1*
G04 #@! TO.N,Net-(J3-Pin_2)*
X90043000Y-89838450D03*
D12*
G04 #@! TO.P,R7,2*
G04 #@! TO.N,GND*
X100203000Y-89838450D03*
G04 #@! TD*
D18*
G04 #@! TO.P,J6,1,Pin_1*
G04 #@! TO.N,Net-(J6-Pin_1)*
X95377000Y-150798450D03*
D19*
G04 #@! TO.P,J6,2,Pin_2*
G04 #@! TO.N,Net-(J6-Pin_2)*
X97917000Y-150798450D03*
G04 #@! TO.P,J6,3,Pin_3*
G04 #@! TO.N,Net-(J6-Pin_3)*
X100457000Y-150798450D03*
G04 #@! TO.P,J6,4,Pin_4*
G04 #@! TO.N,Net-(J6-Pin_4)*
X102997000Y-150798450D03*
G04 #@! TD*
D11*
G04 #@! TO.P,R43,1*
G04 #@! TO.N,Net-(Q5-B)*
X160909000Y-80440450D03*
D12*
G04 #@! TO.P,R43,2*
G04 #@! TO.N,+24V*
X160909000Y-90600450D03*
G04 #@! TD*
D11*
G04 #@! TO.P,R38,1*
G04 #@! TO.N,Net-(Q1-B)*
X130244300Y-102099750D03*
D12*
G04 #@! TO.P,R38,2*
G04 #@! TO.N,+24V*
X130244300Y-91939750D03*
G04 #@! TD*
D11*
G04 #@! TO.P,R40,1*
G04 #@! TO.N,Net-(Q3-B)*
X126884600Y-76388050D03*
D12*
G04 #@! TO.P,R40,2*
G04 #@! TO.N,+24V*
X126884600Y-66228050D03*
G04 #@! TD*
D13*
G04 #@! TO.P,U2,1*
G04 #@! TO.N,Net-(R1-Pad2)*
X91323000Y-69894450D03*
D12*
G04 #@! TO.P,U2,2*
G04 #@! TO.N,Net-(J3-Pin_1)*
X91323000Y-72434450D03*
G04 #@! TO.P,U2,3*
G04 #@! TO.N,GND*
X98943000Y-72434450D03*
G04 #@! TO.P,U2,4*
G04 #@! TO.N,Net-(U9-GPIO35)*
X98943000Y-69894450D03*
G04 #@! TD*
D11*
G04 #@! TO.P,R22,1*
G04 #@! TO.N,Net-(J2-Pin_3)*
X111887000Y-82726450D03*
D12*
G04 #@! TO.P,R22,2*
G04 #@! TO.N,Net-(U9-GPIO34)*
X122047000Y-82726450D03*
G04 #@! TD*
D18*
G04 #@! TO.P,J8,1,Pin_1*
G04 #@! TO.N,Net-(J8-Pin_1)*
X80391000Y-67867450D03*
D19*
G04 #@! TO.P,J8,2,Pin_2*
G04 #@! TO.N,Net-(J8-Pin_2)*
X80391000Y-70407450D03*
G04 #@! TO.P,J8,3,Pin_3*
G04 #@! TO.N,Net-(J8-Pin_3)*
X80391000Y-72947450D03*
G04 #@! TO.P,J8,4,Pin_4*
G04 #@! TO.N,Net-(J8-Pin_4)*
X80391000Y-75487450D03*
G04 #@! TO.P,J8,5,Pin_5*
G04 #@! TO.N,Net-(J8-Pin_5)*
X80391000Y-78027450D03*
G04 #@! TO.P,J8,6,Pin_6*
G04 #@! TO.N,Net-(J8-Pin_6)*
X80391000Y-80567450D03*
G04 #@! TO.P,J8,7,Pin_7*
G04 #@! TO.N,Net-(J8-Pin_7)*
X80391000Y-83107450D03*
G04 #@! TD*
D11*
G04 #@! TO.P,R39,1*
G04 #@! TO.N,Net-(Q2-B)*
X126746000Y-89076450D03*
D12*
G04 #@! TO.P,R39,2*
G04 #@! TO.N,+24V*
X126746000Y-78916450D03*
G04 #@! TD*
D13*
G04 #@! TO.P,C3,1*
G04 #@! TO.N,+24V*
X127320100Y-53770450D03*
D11*
G04 #@! TO.P,C3,2*
G04 #@! TO.N,GND*
X125320100Y-53770450D03*
G04 #@! TD*
D13*
G04 #@! TO.P,U8,1*
G04 #@! TO.N,Net-(R21-Pad2)*
X112913000Y-94278450D03*
D12*
G04 #@! TO.P,U8,2*
G04 #@! TO.N,Net-(J3-Pin_7)*
X112913000Y-96818450D03*
G04 #@! TO.P,U8,3*
G04 #@! TO.N,GND*
X120533000Y-96818450D03*
G04 #@! TO.P,U8,4*
G04 #@! TO.N,Net-(U9-GPIO16)*
X120533000Y-94278450D03*
G04 #@! TD*
D13*
G04 #@! TO.P,C1,1*
G04 #@! TO.N,+24V*
X121126000Y-53643450D03*
D11*
G04 #@! TO.P,C1,2*
G04 #@! TO.N,GND*
X119126000Y-53643450D03*
G04 #@! TD*
D18*
G04 #@! TO.P,J2,1,Pin_1*
G04 #@! TO.N,Net-(J2-Pin_1)*
X80418000Y-92929450D03*
D19*
G04 #@! TO.P,J2,2,Pin_2*
G04 #@! TO.N,Net-(J2-Pin_2)*
X80418000Y-95469450D03*
G04 #@! TO.P,J2,3,Pin_3*
G04 #@! TO.N,Net-(J2-Pin_3)*
X80418000Y-98009450D03*
G04 #@! TD*
D11*
G04 #@! TO.P,R36,1*
G04 #@! TO.N,Net-(U1-VO)*
X147193000Y-90600450D03*
D12*
G04 #@! TO.P,R36,2*
G04 #@! TO.N,Net-(R36-Pad2)*
X147193000Y-80440450D03*
G04 #@! TD*
D18*
G04 #@! TO.P,J1,1,Pin_1*
G04 #@! TO.N,Net-(J1-Pin_1)*
X87927000Y-150828450D03*
D19*
G04 #@! TO.P,J1,2,Pin_2*
G04 #@! TO.N,Net-(J1-Pin_2)*
X90467000Y-150828450D03*
G04 #@! TD*
D13*
G04 #@! TO.P,U14,1*
G04 #@! TO.N,Net-(R35-Pad2)*
X149743000Y-66719450D03*
D12*
G04 #@! TO.P,U14,2*
G04 #@! TO.N,Net-(U9-GPIO19)*
X149743000Y-69259450D03*
G04 #@! TO.P,U14,3*
G04 #@! TO.N,GND*
X157363000Y-69259450D03*
G04 #@! TO.P,U14,4*
G04 #@! TO.N,Net-(Q4-B)*
X157363000Y-66719450D03*
G04 #@! TD*
D11*
G04 #@! TO.P,R4,1*
G04 #@! TO.N,+24V*
X86995000Y-90346450D03*
D12*
G04 #@! TO.P,R4,2*
G04 #@! TO.N,Net-(R4-Pad2)*
X86995000Y-80186450D03*
G04 #@! TD*
D18*
G04 #@! TO.P,J4,1,Pin_1*
G04 #@! TO.N,+24V*
X138684000Y-151052450D03*
D19*
G04 #@! TO.P,J4,2,Pin_2*
G04 #@! TO.N,GND*
X141224000Y-151052450D03*
G04 #@! TD*
D11*
G04 #@! TO.P,R15,1*
G04 #@! TO.N,Net-(J3-Pin_6)*
X90297000Y-142416450D03*
D12*
G04 #@! TO.P,R15,2*
G04 #@! TO.N,GND*
X100457000Y-142416450D03*
G04 #@! TD*
D16*
G04 #@! TO.P,U10,1,ADJ*
G04 #@! TO.N,Net-(U10-ADJ)*
X146177000Y-53445450D03*
D17*
G04 #@! TO.P,U10,2,VO*
G04 #@! TO.N,Net-(U10-VO)*
X148717000Y-53445450D03*
G04 #@! TO.P,U10,3,VI*
G04 #@! TO.N,+24V*
X151257000Y-53445450D03*
G04 #@! TD*
D20*
G04 #@! TO.N,Net-(U9-GPIO2)*
X104457000Y-146943750D03*
G04 #@! TO.N,Net-(Q3-B)*
X132771900Y-74604150D03*
G04 #@! TO.N,GND*
X125023000Y-142580450D03*
G04 #@! TO.N,Net-(J8-Pin_2)*
X85007300Y-75023750D03*
G04 #@! TO.N,Net-(J8-Pin_1)*
X99015900Y-87132050D03*
G04 #@! TO.N,Net-(J7-Pin_2)*
X139862100Y-123334250D03*
G04 #@! TO.N,Net-(J7-Pin_1)*
X139366000Y-121795250D03*
G04 #@! TO.N,Net-(J5-Pin_2)*
X147222100Y-104255450D03*
G04 #@! TD*
D21*
G04 #@! TO.N,Net-(R9-Pad2)*
X87249000Y-126502650D02*
X87249000Y-129208450D01*
X91041300Y-122710350D02*
X87249000Y-126502650D01*
X91323000Y-122710350D02*
X91041300Y-122710350D01*
X91323000Y-121583450D02*
X91323000Y-122710350D01*
G04 #@! TO.N,Net-(U9-GPIO5)*
X151959700Y-97326450D02*
X151959700Y-98453350D01*
X138022700Y-123019750D02*
X133702000Y-127340450D01*
X138022700Y-121125650D02*
X138022700Y-123019750D01*
X141919400Y-117228950D02*
X138022700Y-121125650D01*
X141919400Y-114390050D02*
X141919400Y-117228950D01*
X146495100Y-109814350D02*
X141919400Y-114390050D01*
X146495100Y-103917950D02*
X146495100Y-109814350D01*
X151959700Y-98453350D02*
X146495100Y-103917950D01*
G04 #@! TO.N,Net-(U9-GPIO18)*
X140499400Y-118001550D02*
X133702000Y-124798950D01*
X140499400Y-106886650D02*
X140499400Y-118001550D01*
X142372800Y-105013250D02*
X140499400Y-106886650D01*
X142372800Y-96507450D02*
X142372800Y-105013250D01*
X145892800Y-92987450D02*
X142372800Y-96507450D01*
X145892800Y-89095550D02*
X145892800Y-92987450D01*
X150378000Y-84610350D02*
X145892800Y-89095550D01*
X150378000Y-83483450D02*
X150378000Y-84610350D01*
G04 #@! TO.N,Net-(U9-GPIO19)*
X149743000Y-69259450D02*
X149743000Y-70386350D01*
X135807700Y-120154750D02*
X133702000Y-122260450D01*
X135807700Y-102435650D02*
X135807700Y-120154750D01*
X141920900Y-96322450D02*
X135807700Y-102435650D01*
X141920900Y-78208450D02*
X141920900Y-96322450D01*
X149743000Y-70386350D02*
X141920900Y-78208450D01*
G04 #@! TO.N,Net-(U9-GPIO21)*
X132333100Y-118351550D02*
X133702000Y-119720450D01*
X132333100Y-104114750D02*
X132333100Y-118351550D01*
X134310600Y-102137250D02*
X132333100Y-104114750D01*
X134310600Y-96697650D02*
X134310600Y-102137250D01*
X132712000Y-95099050D02*
X134310600Y-96697650D01*
X132712000Y-78473250D02*
X132712000Y-95099050D01*
X136745300Y-74439950D02*
X132712000Y-78473250D01*
X137449600Y-74439950D02*
X136745300Y-74439950D01*
X137449600Y-73313050D02*
X137449600Y-74439950D01*
G04 #@! TO.N,Net-(U9-GPIO22)*
X135351700Y-110450750D02*
X133702000Y-112100450D01*
X135351700Y-88381350D02*
X135351700Y-110450750D01*
X136572700Y-87160350D02*
X135351700Y-88381350D01*
X137277000Y-87160350D02*
X136572700Y-87160350D01*
X137277000Y-86033450D02*
X137277000Y-87160350D01*
G04 #@! TO.N,Net-(U10-ADJ)*
X146177000Y-59882550D02*
X145669000Y-60390550D01*
X146177000Y-53445450D02*
X146177000Y-59882550D01*
X145669000Y-61517450D02*
X145669000Y-60390550D01*
G04 #@! TO.N,Net-(U9-GPIO16)*
X126475900Y-125194350D02*
X133702000Y-132420450D01*
X126475900Y-93997250D02*
X126475900Y-125194350D01*
X125349000Y-92870350D02*
X126475900Y-93997250D01*
X125349000Y-91743450D02*
X125349000Y-92870350D01*
G04 #@! TO.N,Net-(U9-GPIO39)*
X121920000Y-74344450D02*
X121920000Y-75471350D01*
X122047000Y-75598350D02*
X122047000Y-78789450D01*
X121920000Y-75471350D02*
X122047000Y-75598350D01*
X114932000Y-108160450D02*
X108452000Y-114640450D01*
X114932000Y-87031350D02*
X114932000Y-108160450D01*
X122047000Y-79916350D02*
X114932000Y-87031350D01*
X122047000Y-78789450D02*
X122047000Y-79916350D01*
G04 #@! TO.N,Net-(U9-GPIO36)*
X122047000Y-65073450D02*
X122047000Y-69899450D01*
X122047000Y-69899450D02*
X122047000Y-71026350D01*
X114255000Y-106297450D02*
X108452000Y-112100450D01*
X114255000Y-78818350D02*
X114255000Y-106297450D01*
X122047000Y-71026350D02*
X114255000Y-78818350D01*
G04 #@! TO.N,Net-(U9-GPIO34)*
X122047000Y-82726450D02*
X122047000Y-83853350D01*
X122174000Y-83980350D02*
X122174000Y-87425450D01*
X122047000Y-83853350D02*
X122174000Y-83980350D01*
X122174000Y-87425450D02*
X122174000Y-88552350D01*
X118252100Y-92474250D02*
X122174000Y-88552350D01*
X118252100Y-107380350D02*
X118252100Y-92474250D01*
X108452000Y-117180450D02*
X118252100Y-107380350D01*
G04 #@! TO.N,Net-(U9-GPIO25)*
X106290600Y-125179050D02*
X108452000Y-127340450D01*
X106290600Y-84606950D02*
X106290600Y-125179050D01*
X102997000Y-81313350D02*
X106290600Y-84606950D01*
X102997000Y-80186450D02*
X102997000Y-81313350D01*
G04 #@! TO.N,Net-(U9-GPIO2)*
X99187000Y-135050450D02*
X99187000Y-136177350D01*
X103378000Y-140088650D02*
X103378000Y-142797450D01*
X99466700Y-136177350D02*
X103378000Y-140088650D01*
X99187000Y-136177350D02*
X99466700Y-136177350D01*
X104457000Y-145003350D02*
X104457000Y-146943750D01*
X103378000Y-143924350D02*
X104457000Y-145003350D01*
X103378000Y-142797450D02*
X103378000Y-143924350D01*
G04 #@! TO.N,Net-(U9-GPIO15)*
X103124000Y-129208450D02*
X103124000Y-130335350D01*
X102244600Y-130335350D02*
X103124000Y-130335350D01*
X93941700Y-138638250D02*
X102244600Y-130335350D01*
X93941700Y-152104650D02*
X93941700Y-138638250D01*
X95044000Y-153206950D02*
X93941700Y-152104650D01*
X105383800Y-153206950D02*
X95044000Y-153206950D01*
X118550300Y-140040450D02*
X105383800Y-153206950D01*
X133702000Y-140040450D02*
X118550300Y-140040450D01*
X103124000Y-126609650D02*
X103124000Y-129208450D01*
X99224700Y-122710350D02*
X103124000Y-126609650D01*
X98943000Y-122710350D02*
X99224700Y-122710350D01*
X98943000Y-121583450D02*
X98943000Y-122710350D01*
G04 #@! TO.N,Net-(U9-GPIO26)*
X98650000Y-95464450D02*
X98650000Y-96591350D01*
X102940000Y-100599650D02*
X102940000Y-103254450D01*
X98931700Y-96591350D02*
X102940000Y-100599650D01*
X98650000Y-96591350D02*
X98931700Y-96591350D01*
X102940000Y-103254450D02*
X102940000Y-104381350D01*
X105780700Y-127209150D02*
X108452000Y-129880450D01*
X105780700Y-115130750D02*
X105780700Y-127209150D01*
X102049200Y-111399250D02*
X105780700Y-115130750D01*
X102049200Y-105272150D02*
X102049200Y-111399250D01*
X102940000Y-104381350D02*
X102049200Y-105272150D01*
G04 #@! TO.N,Net-(U9-GPIO35)*
X103124000Y-67359450D02*
X103124000Y-68486350D01*
X106915600Y-72277950D02*
X103124000Y-68486350D01*
X106915600Y-118184050D02*
X106915600Y-72277950D01*
X108452000Y-119720450D02*
X106915600Y-118184050D01*
G04 #@! TO.N,Net-(U9-GPIO27)*
X99070000Y-108629450D02*
X99070000Y-109756350D01*
X103180000Y-113604950D02*
X103180000Y-116339450D01*
X99331400Y-109756350D02*
X103180000Y-113604950D01*
X99070000Y-109756350D02*
X99331400Y-109756350D01*
X105090100Y-129058550D02*
X108452000Y-132420450D01*
X105090100Y-119376450D02*
X105090100Y-129058550D01*
X103180000Y-117466350D02*
X105090100Y-119376450D01*
X103180000Y-116339450D02*
X103180000Y-117466350D01*
G04 #@! TO.N,Net-(J3-Pin_7)*
X112141000Y-98717350D02*
X112913000Y-97945350D01*
X112141000Y-101395450D02*
X112141000Y-98717350D01*
X112913000Y-96818450D02*
X112913000Y-97945350D01*
G04 #@! TO.N,Net-(J3-Pin_6)*
X84743700Y-131894050D02*
X90440100Y-137590450D01*
X84743700Y-123655150D02*
X84743700Y-131894050D01*
X80518000Y-119429450D02*
X84743700Y-123655150D01*
X91567000Y-137590450D02*
X91003600Y-137590450D01*
X91003600Y-137590450D02*
X90440100Y-137590450D01*
X90297000Y-138297050D02*
X90297000Y-142416450D01*
X91003600Y-137590450D02*
X90297000Y-138297050D01*
G04 #@! TO.N,Net-(J3-Pin_5)*
X91323000Y-124123450D02*
X91323000Y-125250350D01*
X90043000Y-126530350D02*
X91323000Y-125250350D01*
X90043000Y-128827450D02*
X90043000Y-126530350D01*
G04 #@! TO.N,Net-(J3-Pin_4)*
X90050000Y-113696350D02*
X90050000Y-115909450D01*
X91450000Y-112296350D02*
X90050000Y-113696350D01*
X91450000Y-111169450D02*
X91450000Y-112296350D01*
G04 #@! TO.N,Net-(J3-Pin_3)*
X89940000Y-100221350D02*
X89940000Y-102814450D01*
X91030000Y-99131350D02*
X89940000Y-100221350D01*
X91030000Y-98004450D02*
X91030000Y-99131350D01*
G04 #@! TO.N,Net-(U10-VO)*
X124061700Y-129510750D02*
X108452000Y-145120450D01*
X124061700Y-90126150D02*
X124061700Y-129510750D01*
X127024000Y-87163850D02*
X124061700Y-90126150D01*
X130165900Y-87163850D02*
X127024000Y-87163850D01*
X131108800Y-86220950D02*
X130165900Y-87163850D01*
X131108800Y-69346450D02*
X131108800Y-86220950D01*
X133861900Y-66593350D02*
X131108800Y-69346450D01*
X133861900Y-54962150D02*
X133861900Y-66593350D01*
X133797100Y-54897350D02*
X133861900Y-54962150D01*
X133797100Y-53770450D02*
X133797100Y-54897350D01*
G04 #@! TO.N,Net-(Q5-B)*
X156871100Y-81658050D02*
X152342300Y-86186850D01*
X156871100Y-80943450D02*
X156871100Y-81658050D01*
X152342300Y-87113750D02*
X152342300Y-86186850D01*
X157998000Y-80943450D02*
X156871100Y-80943450D01*
G04 #@! TO.N,Net-(Q4-B)*
X156236100Y-67561050D02*
X156236100Y-66719450D01*
X151707300Y-72089850D02*
X156236100Y-67561050D01*
X151707300Y-73016750D02*
X151707300Y-72089850D01*
X157363000Y-66719450D02*
X156236100Y-66719450D01*
G04 #@! TO.N,Net-(Q3-B)*
X135451300Y-71924750D02*
X132771900Y-74604150D01*
X135451300Y-69714750D02*
X135451300Y-71924750D01*
G04 #@! TO.N,Net-(Q1-B)*
X130752300Y-101591750D02*
X130244300Y-102099750D01*
X133165300Y-101591750D02*
X130752300Y-101591750D01*
G04 #@! TO.N,Net-(Q7-B)*
X151245900Y-106983450D02*
X152781000Y-106983450D01*
X150742900Y-107486450D02*
X151245900Y-106983450D01*
X149616000Y-107486450D02*
X150742900Y-107486450D01*
G04 #@! TO.N,Net-(U1-VO)*
X143960300Y-79101150D02*
X146685000Y-76376450D01*
X143960300Y-92066750D02*
X143960300Y-79101150D01*
X139345500Y-77672950D02*
X140462000Y-78789450D01*
X139345500Y-67356150D02*
X139345500Y-77672950D01*
X140473600Y-66228050D02*
X139345500Y-67356150D01*
X102940000Y-90403450D02*
X102940000Y-93094450D01*
X102997000Y-90346450D02*
X102940000Y-90403450D01*
X109445100Y-62397550D02*
X109445100Y-63168450D01*
X115255100Y-56587550D02*
X109445100Y-62397550D01*
X115255100Y-53643450D02*
X115255100Y-56587550D01*
X106531200Y-62397550D02*
X106481600Y-62347950D01*
X109445100Y-62397550D02*
X106531200Y-62397550D01*
X106481600Y-62347950D02*
X97792100Y-53658450D01*
X101997100Y-76392550D02*
X103124000Y-77519450D01*
X101997100Y-66832450D02*
X101997100Y-76392550D01*
X106481600Y-62347950D02*
X101997100Y-66832450D01*
X101851400Y-89200850D02*
X102997000Y-90346450D01*
X101851400Y-78792050D02*
X101851400Y-89200850D01*
X103124000Y-77519450D02*
X101851400Y-78792050D01*
X104258700Y-131756750D02*
X103378000Y-132637450D01*
X104258700Y-120183150D02*
X104258700Y-131756750D01*
X103124000Y-119048450D02*
X104258700Y-120183150D01*
X104066900Y-105292550D02*
X103180000Y-106179450D01*
X104066900Y-94221350D02*
X104066900Y-105292550D01*
X102940000Y-93094450D02*
X104066900Y-94221350D01*
G04 #@! TO.N,Net-(U1-ADJ)*
X99285100Y-63168450D02*
X98158200Y-63168450D01*
X96364100Y-63168450D02*
X98158200Y-63168450D01*
X95252100Y-62056450D02*
X96364100Y-63168450D01*
X95252100Y-53658450D02*
X95252100Y-62056450D01*
X96364100Y-63168450D02*
X96364100Y-63295450D01*
G04 #@! TO.N,Net-(J3-Pin_2)*
X90043000Y-87541350D02*
X90043000Y-89838450D01*
X91196000Y-86388350D02*
X90043000Y-87541350D01*
X91196000Y-85261450D02*
X91196000Y-86388350D01*
X80694100Y-109269450D02*
X80518000Y-109269450D01*
X84858700Y-105104850D02*
X80694100Y-109269450D01*
X84858700Y-97819250D02*
X84858700Y-105104850D01*
X90043000Y-92634950D02*
X84858700Y-97819250D01*
X90043000Y-89838450D02*
X90043000Y-92634950D01*
G04 #@! TO.N,Net-(J3-Pin_1)*
X80518000Y-106729450D02*
X80518000Y-105302550D01*
X91323000Y-72434450D02*
X91323000Y-73561350D01*
X88594000Y-78460450D02*
X90043000Y-77011450D01*
X88594000Y-90374150D02*
X88594000Y-78460450D01*
X87299000Y-91669150D02*
X88594000Y-90374150D01*
X86806100Y-91669150D02*
X87299000Y-91669150D01*
X81944900Y-96530350D02*
X86806100Y-91669150D01*
X81944900Y-103875650D02*
X81944900Y-96530350D01*
X80518000Y-105302550D02*
X81944900Y-103875650D01*
X90043000Y-74841350D02*
X91323000Y-73561350D01*
X90043000Y-77011450D02*
X90043000Y-74841350D01*
G04 #@! TO.N,GND*
X157363000Y-69259450D02*
X157363000Y-70386350D01*
X157998000Y-83483450D02*
X157998000Y-82356550D01*
X157998000Y-94899550D02*
X157998000Y-83483450D01*
X159298000Y-96199550D02*
X157998000Y-94899550D01*
X159579700Y-96199550D02*
X159298000Y-96199550D01*
X159579700Y-97326450D02*
X159579700Y-96199550D01*
X98650000Y-98004450D02*
X98650000Y-99131350D01*
X100203000Y-126510350D02*
X100203000Y-128827450D01*
X98943000Y-125250350D02*
X100203000Y-126510350D01*
X98943000Y-124123450D02*
X98943000Y-125250350D01*
X98816000Y-85261450D02*
X98816000Y-84134550D01*
X100210000Y-113436350D02*
X99070000Y-112296350D01*
X100210000Y-115909450D02*
X100210000Y-113436350D01*
X99070000Y-111169450D02*
X99070000Y-112296350D01*
X100100000Y-100581350D02*
X100100000Y-102814450D01*
X98650000Y-99131350D02*
X100100000Y-100581350D01*
X97930700Y-110030150D02*
X99070000Y-111169450D01*
X97930700Y-106110650D02*
X97930700Y-110030150D01*
X100100000Y-103941350D02*
X97930700Y-106110650D01*
X100100000Y-102814450D02*
X100100000Y-103941350D01*
X100457000Y-139987350D02*
X99187000Y-138717350D01*
X100457000Y-142416450D02*
X100457000Y-139987350D01*
X99187000Y-137590450D02*
X99187000Y-138717350D01*
X112888900Y-70901350D02*
X111887000Y-69899450D01*
X112888900Y-77787550D02*
X112888900Y-70901350D01*
X111887000Y-78789450D02*
X112888900Y-77787550D01*
X133702000Y-142580450D02*
X125023000Y-142580450D01*
X113015100Y-79917550D02*
X111887000Y-78789450D01*
X113015100Y-86424350D02*
X113015100Y-79917550D01*
X112014000Y-87425450D02*
X113015100Y-86424350D01*
X158231500Y-82356550D02*
X157998000Y-82356550D01*
X159147400Y-81440650D02*
X158231500Y-82356550D01*
X159147400Y-72170750D02*
X159147400Y-81440650D01*
X157363000Y-70386350D02*
X159147400Y-72170750D01*
X99049500Y-84134550D02*
X98816000Y-84134550D01*
X100203000Y-82981050D02*
X99049500Y-84134550D01*
X100203000Y-77011450D02*
X100203000Y-82981050D01*
X100203000Y-77011450D02*
X100203000Y-75884550D01*
X98943000Y-74624550D02*
X98943000Y-72434450D01*
X100203000Y-75884550D02*
X98943000Y-74624550D01*
X88677100Y-63295450D02*
X86204100Y-63295450D01*
X97816100Y-72434450D02*
X88677100Y-63295450D01*
X98943000Y-72434450D02*
X97816100Y-72434450D01*
X122301000Y-99713350D02*
X122301000Y-101395450D01*
X120533000Y-97945350D02*
X122301000Y-99713350D01*
X120533000Y-96818450D02*
X120533000Y-97945350D01*
X129657000Y-86033450D02*
X129657000Y-85469950D01*
X120533000Y-96818450D02*
X120533000Y-95691550D01*
X129657000Y-85469950D02*
X128657800Y-85469950D01*
X129596100Y-74439950D02*
X129829600Y-74439950D01*
X128657800Y-75378250D02*
X129596100Y-74439950D01*
X128657800Y-85469950D02*
X128657800Y-75378250D01*
X129829600Y-65529750D02*
X132715000Y-62644350D01*
X129829600Y-73313050D02*
X129829600Y-65529750D01*
X132715000Y-61517450D02*
X132715000Y-62644350D01*
X129829600Y-73313050D02*
X129829600Y-74439950D01*
X120766500Y-95691550D02*
X120533000Y-95691550D01*
X121947600Y-94510450D02*
X120766500Y-95691550D01*
X121947600Y-91558050D02*
X121947600Y-94510450D01*
X128035700Y-85469950D02*
X121947600Y-91558050D01*
X128657800Y-85469950D02*
X128035700Y-85469950D01*
X100203000Y-85521550D02*
X99942900Y-85261450D01*
X100203000Y-88711550D02*
X100203000Y-85521550D01*
X100203000Y-89838450D02*
X100203000Y-88711550D01*
X98816000Y-85261450D02*
X99942900Y-85261450D01*
G04 #@! TO.N,+24V*
X127320100Y-64665650D02*
X126884600Y-65101150D01*
X127320100Y-53770450D02*
X127320100Y-64665650D01*
X139298600Y-84902950D02*
X136398000Y-82002350D01*
X139298600Y-92447150D02*
X139298600Y-84902950D01*
X139954000Y-93102550D02*
X139298600Y-92447150D01*
X139954000Y-94029450D02*
X139954000Y-93102550D01*
X136398000Y-81075450D02*
X136398000Y-82002350D01*
X126884600Y-65664550D02*
X126884600Y-65101150D01*
X88131300Y-78528750D02*
X86995000Y-77392450D01*
X88131300Y-89210150D02*
X88131300Y-78528750D01*
X86995000Y-90346450D02*
X88131300Y-89210150D01*
X87249000Y-116328450D02*
X87249000Y-119048450D01*
X87210000Y-116289450D02*
X87249000Y-116328450D01*
X86115400Y-120182050D02*
X87249000Y-119048450D01*
X86115400Y-131376850D02*
X86115400Y-120182050D01*
X87376000Y-132637450D02*
X86115400Y-131376850D01*
X143129000Y-116976750D02*
X143129000Y-115111450D01*
X138633600Y-121472150D02*
X143129000Y-116976750D01*
X138633600Y-149575150D02*
X138633600Y-121472150D01*
X138684000Y-149625550D02*
X138633600Y-149575150D01*
X138684000Y-151052450D02*
X138684000Y-149625550D01*
X86082700Y-115162150D02*
X87210000Y-116289450D01*
X86082700Y-104211750D02*
X86082700Y-115162150D01*
X87110000Y-103184450D02*
X86082700Y-104211750D01*
X151187000Y-54842350D02*
X151257000Y-54772350D01*
X151187000Y-71973250D02*
X151187000Y-54842350D01*
X150437300Y-72722950D02*
X151187000Y-71973250D01*
X150437300Y-74286750D02*
X150437300Y-72722950D01*
X151257000Y-53445450D02*
X151257000Y-54772350D01*
X152781000Y-117143450D02*
X152781000Y-116016550D01*
X152781000Y-102226750D02*
X152781000Y-103153650D01*
X162363700Y-104570450D02*
X162363700Y-105697350D01*
X153930400Y-105697350D02*
X162363700Y-105697350D01*
X153930400Y-104303050D02*
X153930400Y-105697350D01*
X152781000Y-103153650D02*
X153930400Y-104303050D01*
X153930400Y-114867150D02*
X152781000Y-116016550D01*
X153930400Y-105697350D02*
X153930400Y-114867150D01*
X126884600Y-65664550D02*
X126884600Y-66228050D01*
X126884600Y-66228050D02*
X126884600Y-67354950D01*
X126746000Y-78916450D02*
X126746000Y-77789550D01*
X151504900Y-76281250D02*
X150437300Y-75213650D01*
X151504900Y-83950250D02*
X151504900Y-76281250D01*
X151072300Y-84382850D02*
X151504900Y-83950250D01*
X151072300Y-88383750D02*
X151072300Y-84382850D01*
X150437300Y-74286750D02*
X150437300Y-75213650D01*
X159779500Y-78124850D02*
X160401000Y-77503350D01*
X159779500Y-88344050D02*
X159779500Y-78124850D01*
X160909000Y-89473550D02*
X159779500Y-88344050D01*
X160909000Y-90600450D02*
X160909000Y-89473550D01*
X160401000Y-76376450D02*
X160401000Y-77503350D01*
X127168600Y-77789550D02*
X126746000Y-77789550D01*
X128027800Y-76930350D02*
X127168600Y-77789550D01*
X128027800Y-68498150D02*
X128027800Y-76930350D01*
X126884600Y-67354950D02*
X128027800Y-68498150D01*
G04 #@! TO.N,Net-(J8-Pin_2)*
X80391000Y-70407450D02*
X85007300Y-75023750D01*
G04 #@! TO.N,Net-(J8-Pin_1)*
X80391000Y-67867450D02*
X81817900Y-67867450D01*
X95900900Y-84017050D02*
X99015900Y-87132050D01*
X95900900Y-75413550D02*
X95900900Y-84017050D01*
X91579400Y-71092050D02*
X95900900Y-75413550D01*
X85042500Y-71092050D02*
X91579400Y-71092050D01*
X81817900Y-67867450D02*
X85042500Y-71092050D01*
G04 #@! TO.N,Net-(J7-Pin_2)*
X148209000Y-131681150D02*
X139862100Y-123334250D01*
X148209000Y-151052450D02*
X148209000Y-131681150D01*
G04 #@! TO.N,Net-(J7-Pin_1)*
X145669000Y-151052450D02*
X145669000Y-149625550D01*
X139135100Y-122026150D02*
X139366000Y-121795250D01*
X139135100Y-143091650D02*
X139135100Y-122026150D01*
X145669000Y-149625550D02*
X139135100Y-143091650D01*
G04 #@! TO.N,Net-(J6-Pin_4)*
X105534400Y-137878050D02*
X108452000Y-134960450D01*
X105534400Y-148261050D02*
X105534400Y-137878050D01*
X102997000Y-150798450D02*
X105534400Y-148261050D01*
G04 #@! TO.N,Net-(J6-Pin_3)*
X106156800Y-139795650D02*
X108452000Y-137500450D01*
X106156800Y-149661750D02*
X106156800Y-139795650D01*
X103578200Y-152240350D02*
X106156800Y-149661750D01*
X101898900Y-152240350D02*
X103578200Y-152240350D01*
X100457000Y-150798450D02*
X101898900Y-152240350D01*
G04 #@! TO.N,Net-(J6-Pin_2)*
X99827400Y-152708850D02*
X97917000Y-150798450D01*
X103755800Y-152708850D02*
X99827400Y-152708850D01*
X107060600Y-149404050D02*
X103755800Y-152708850D01*
X107060600Y-141431850D02*
X107060600Y-149404050D01*
X108452000Y-140040450D02*
X107060600Y-141431850D01*
G04 #@! TO.N,Net-(J5-Pin_2)*
X147222100Y-119867650D02*
X147222100Y-104255450D01*
X155321000Y-127966550D02*
X147222100Y-119867650D01*
X155321000Y-151179450D02*
X155321000Y-127966550D01*
G04 #@! TD*
M02*
