G04 #@! TF.GenerationSoftware,KiCad,Pcbnew,7.0.5*
G04 #@! TF.CreationDate,2023-07-13T15:49:32+01:00*
G04 #@! TF.ProjectId,PCB,5043422e-6b69-4636-9164-5f7063625858,rev?*
G04 #@! TF.SameCoordinates,Original*
G04 #@! TF.FileFunction,Copper,L2,Bot*
G04 #@! TF.FilePolarity,Positive*
%FSLAX46Y46*%
G04 Gerber Fmt 4.6, Leading zero omitted, Abs format (unit mm)*
G04 Created by KiCad (PCBNEW 7.0.5) date 2023-07-13 15:49:32*
%MOMM*%
%LPD*%
G01*
G04 APERTURE LIST*
G04 #@! TA.AperFunction,ComponentPad*
%ADD10C,2.000000*%
G04 #@! TD*
G04 #@! TA.AperFunction,ComponentPad*
%ADD11C,1.600000*%
G04 #@! TD*
G04 #@! TA.AperFunction,ComponentPad*
%ADD12O,1.600000X1.600000*%
G04 #@! TD*
G04 #@! TA.AperFunction,ComponentPad*
%ADD13R,1.600000X1.600000*%
G04 #@! TD*
G04 #@! TA.AperFunction,ComponentPad*
%ADD14O,1.600000X1.200000*%
G04 #@! TD*
G04 #@! TA.AperFunction,ComponentPad*
%ADD15O,1.200000X1.200000*%
G04 #@! TD*
G04 #@! TA.AperFunction,ComponentPad*
%ADD16R,1.905000X2.000000*%
G04 #@! TD*
G04 #@! TA.AperFunction,ComponentPad*
%ADD17O,1.905000X2.000000*%
G04 #@! TD*
G04 #@! TA.AperFunction,ComponentPad*
%ADD18R,2.200000X2.200000*%
G04 #@! TD*
G04 #@! TA.AperFunction,ComponentPad*
%ADD19C,2.200000*%
G04 #@! TD*
G04 #@! TA.AperFunction,ViaPad*
%ADD20C,0.800000*%
G04 #@! TD*
G04 #@! TA.AperFunction,Conductor*
%ADD21C,0.250000*%
G04 #@! TD*
G04 APERTURE END LIST*
D10*
G04 #@! TO.P,U9,1,EN*
G04 #@! TO.N,Net-(J5-Pin_2)*
X108452000Y-109560450D03*
G04 #@! TO.P,U9,2,GPIO36*
G04 #@! TO.N,Net-(U9-GPIO36)*
X108452000Y-112100450D03*
G04 #@! TO.P,U9,3,GPIO39*
G04 #@! TO.N,Net-(U9-GPIO39)*
X108452000Y-114640450D03*
G04 #@! TO.P,U9,4,GPIO34*
G04 #@! TO.N,Net-(U9-GPIO34)*
X108452000Y-117180450D03*
G04 #@! TO.P,U9,5,GPIO35*
G04 #@! TO.N,Net-(U9-GPIO35)*
X108452000Y-119720450D03*
G04 #@! TO.P,U9,6,GPIO32*
G04 #@! TO.N,Net-(J1-Pin_1)*
X108452000Y-122260450D03*
G04 #@! TO.P,U9,7,GPIO33*
G04 #@! TO.N,Net-(J1-Pin_2)*
X108452000Y-124800450D03*
G04 #@! TO.P,U9,8,GPIO25*
G04 #@! TO.N,Net-(U9-GPIO25)*
X108452000Y-127340450D03*
G04 #@! TO.P,U9,9,GPIO26*
G04 #@! TO.N,Net-(U9-GPIO26)*
X108452000Y-129880450D03*
G04 #@! TO.P,U9,10,GPIO27*
G04 #@! TO.N,Net-(U9-GPIO27)*
X108452000Y-132420450D03*
G04 #@! TO.P,U9,11,GPIO14*
G04 #@! TO.N,Net-(J6-Pin_4)*
X108452000Y-134960450D03*
G04 #@! TO.P,U9,12,GPIO12*
G04 #@! TO.N,Net-(J6-Pin_3)*
X108452000Y-137500450D03*
G04 #@! TO.P,U9,13,GPIO13*
G04 #@! TO.N,Net-(J6-Pin_2)*
X108452000Y-140040450D03*
G04 #@! TO.P,U9,14,GND*
G04 #@! TO.N,GND*
X108452000Y-142580450D03*
G04 #@! TO.P,U9,15,VIN*
G04 #@! TO.N,Net-(U10-VO)*
X108452000Y-145120450D03*
G04 #@! TO.P,U9,16,GPIO23*
G04 #@! TO.N,Net-(U9-GPIO23)*
X133702000Y-109560450D03*
G04 #@! TO.P,U9,17,GPIO22*
G04 #@! TO.N,Net-(U9-GPIO22)*
X133702000Y-112100450D03*
G04 #@! TO.P,U9,18,GPIO1*
G04 #@! TO.N,Net-(J7-Pin_1)*
X133702000Y-114640450D03*
G04 #@! TO.P,U9,19,GPIO3*
G04 #@! TO.N,Net-(J7-Pin_2)*
X133702000Y-117180450D03*
G04 #@! TO.P,U9,20,GPIO21*
G04 #@! TO.N,Net-(U9-GPIO21)*
X133702000Y-119720450D03*
G04 #@! TO.P,U9,21,GPIO19*
G04 #@! TO.N,Net-(U9-GPIO19)*
X133702000Y-122260450D03*
G04 #@! TO.P,U9,22,GPIO18*
G04 #@! TO.N,Net-(U9-GPIO18)*
X133702000Y-124798950D03*
G04 #@! TO.P,U9,23,GPIO5*
G04 #@! TO.N,Net-(U9-GPIO5)*
X133702000Y-127340450D03*
G04 #@! TO.P,U9,24,GPIO17*
G04 #@! TO.N,Net-(U9-GPIO17)*
X133702000Y-129880450D03*
G04 #@! TO.P,U9,25,GPIO16*
G04 #@! TO.N,Net-(U9-GPIO16)*
X133702000Y-132420450D03*
G04 #@! TO.P,U9,26,GPIO4*
G04 #@! TO.N,Net-(J6-Pin_1)*
X133702000Y-134960450D03*
G04 #@! TO.P,U9,27,GPIO2*
G04 #@! TO.N,Net-(U9-GPIO2)*
X133702000Y-137500450D03*
G04 #@! TO.P,U9,28,GPIO15*
G04 #@! TO.N,Net-(U9-GPIO15)*
X133702000Y-140040450D03*
G04 #@! TO.P,U9,29,GND*
G04 #@! TO.N,GND*
X133702000Y-142580450D03*
G04 #@! TO.P,U9,30,3.3V*
G04 #@! TO.N,Net-(J5-Pin_1)*
X133702000Y-145120450D03*
G04 #@! TD*
D11*
G04 #@! TO.P,R26,1*
G04 #@! TO.N,GND*
X112014000Y-87425450D03*
D12*
G04 #@! TO.P,R26,2*
G04 #@! TO.N,Net-(U9-GPIO34)*
X122174000Y-87425450D03*
G04 #@! TD*
D13*
G04 #@! TO.P,U13,1*
G04 #@! TO.N,Net-(R34-Pad2)*
X137449600Y-75853050D03*
D12*
G04 #@! TO.P,U13,2*
G04 #@! TO.N,Net-(U9-GPIO21)*
X137449600Y-73313050D03*
G04 #@! TO.P,U13,3*
G04 #@! TO.N,GND*
X129829600Y-73313050D03*
G04 #@! TO.P,U13,4*
G04 #@! TO.N,Net-(Q3-B)*
X129829600Y-75853050D03*
G04 #@! TD*
D11*
G04 #@! TO.P,R27,1*
G04 #@! TO.N,GND*
X111887000Y-69899450D03*
D12*
G04 #@! TO.P,R27,2*
G04 #@! TO.N,Net-(U9-GPIO36)*
X122047000Y-69899450D03*
G04 #@! TD*
D14*
G04 #@! TO.P,Q4,1,E*
G04 #@! TO.N,Net-(J8-Pin_4)*
X152977300Y-74286750D03*
D15*
G04 #@! TO.P,Q4,2,B*
G04 #@! TO.N,Net-(Q4-B)*
X151707300Y-73016750D03*
G04 #@! TO.P,Q4,3,C*
G04 #@! TO.N,+24V*
X150437300Y-74286750D03*
G04 #@! TD*
D16*
G04 #@! TO.P,U1,1,ADJ*
G04 #@! TO.N,Net-(U1-ADJ)*
X95252100Y-53658450D03*
D17*
G04 #@! TO.P,U1,2,VO*
G04 #@! TO.N,Net-(U1-VO)*
X97792100Y-53658450D03*
G04 #@! TO.P,U1,3,VI*
G04 #@! TO.N,+24V*
X100332100Y-53658450D03*
G04 #@! TD*
D11*
G04 #@! TO.P,R1,1*
G04 #@! TO.N,+24V*
X86995000Y-77392450D03*
D12*
G04 #@! TO.P,R1,2*
G04 #@! TO.N,Net-(R1-Pad2)*
X86995000Y-67232450D03*
G04 #@! TD*
D13*
G04 #@! TO.P,U11,1*
G04 #@! TO.N,Net-(R32-Pad2)*
X140785300Y-101591750D03*
D12*
G04 #@! TO.P,U11,2*
G04 #@! TO.N,Net-(U9-GPIO23)*
X140785300Y-99051750D03*
G04 #@! TO.P,U11,3*
G04 #@! TO.N,GND*
X133165300Y-99051750D03*
G04 #@! TO.P,U11,4*
G04 #@! TO.N,Net-(Q1-B)*
X133165300Y-101591750D03*
G04 #@! TD*
D11*
G04 #@! TO.P,R30,1*
G04 #@! TO.N,Net-(U10-ADJ)*
X142875000Y-61517450D03*
D12*
G04 #@! TO.P,R30,2*
G04 #@! TO.N,GND*
X132715000Y-61517450D03*
G04 #@! TD*
D13*
G04 #@! TO.P,U6,1*
G04 #@! TO.N,Net-(R9-Pad2)*
X91323000Y-121583450D03*
D12*
G04 #@! TO.P,U6,2*
G04 #@! TO.N,Net-(J3-Pin_5)*
X91323000Y-124123450D03*
G04 #@! TO.P,U6,3*
G04 #@! TO.N,GND*
X98943000Y-124123450D03*
G04 #@! TO.P,U6,4*
G04 #@! TO.N,Net-(U9-GPIO15)*
X98943000Y-121583450D03*
G04 #@! TD*
D14*
G04 #@! TO.P,Q6,1,E*
G04 #@! TO.N,Net-(J8-Pin_6)*
X155321000Y-102226750D03*
D15*
G04 #@! TO.P,Q6,2,B*
G04 #@! TO.N,Net-(Q6-B)*
X154051000Y-100956750D03*
G04 #@! TO.P,Q6,3,C*
G04 #@! TO.N,+24V*
X152781000Y-102226750D03*
G04 #@! TD*
D11*
G04 #@! TO.P,R21,1*
G04 #@! TO.N,+24V*
X109220000Y-101776450D03*
D12*
G04 #@! TO.P,R21,2*
G04 #@! TO.N,Net-(R21-Pad2)*
X109220000Y-91616450D03*
G04 #@! TD*
D14*
G04 #@! TO.P,Q3,1,E*
G04 #@! TO.N,Net-(J8-Pin_3)*
X134181300Y-68444750D03*
D15*
G04 #@! TO.P,Q3,2,B*
G04 #@! TO.N,Net-(Q3-B)*
X135451300Y-69714750D03*
G04 #@! TO.P,Q3,3,C*
G04 #@! TO.N,+24V*
X136721300Y-68444750D03*
G04 #@! TD*
D14*
G04 #@! TO.P,Q2,1,E*
G04 #@! TO.N,Net-(J8-Pin_2)*
X133858000Y-81075450D03*
D15*
G04 #@! TO.P,Q2,2,B*
G04 #@! TO.N,Net-(Q2-B)*
X135128000Y-82345450D03*
G04 #@! TO.P,Q2,3,C*
G04 #@! TO.N,+24V*
X136398000Y-81075450D03*
G04 #@! TD*
D14*
G04 #@! TO.P,Q5,1,E*
G04 #@! TO.N,Net-(J8-Pin_5)*
X153612300Y-88383750D03*
D15*
G04 #@! TO.P,Q5,2,B*
G04 #@! TO.N,Net-(Q5-B)*
X152342300Y-87113750D03*
G04 #@! TO.P,Q5,3,C*
G04 #@! TO.N,+24V*
X151072300Y-88383750D03*
G04 #@! TD*
D11*
G04 #@! TO.P,R23,1*
G04 #@! TO.N,Net-(J2-Pin_1)*
X111887000Y-65073450D03*
D12*
G04 #@! TO.P,R23,2*
G04 #@! TO.N,Net-(U9-GPIO36)*
X122047000Y-65073450D03*
G04 #@! TD*
D11*
G04 #@! TO.P,R10,1*
G04 #@! TO.N,Net-(J3-Pin_4)*
X90050000Y-115909450D03*
D12*
G04 #@! TO.P,R10,2*
G04 #@! TO.N,GND*
X100210000Y-115909450D03*
G04 #@! TD*
D11*
G04 #@! TO.P,R6,1*
G04 #@! TO.N,+24V*
X87210000Y-116289450D03*
D12*
G04 #@! TO.P,R6,2*
G04 #@! TO.N,Net-(R6-Pad2)*
X87210000Y-106129450D03*
G04 #@! TD*
D11*
G04 #@! TO.P,R35,1*
G04 #@! TO.N,Net-(U1-VO)*
X146685000Y-76376450D03*
D12*
G04 #@! TO.P,R35,2*
G04 #@! TO.N,Net-(R35-Pad2)*
X146685000Y-66216450D03*
G04 #@! TD*
D13*
G04 #@! TO.P,U5,1*
G04 #@! TO.N,Net-(R6-Pad2)*
X91450000Y-108629450D03*
D12*
G04 #@! TO.P,U5,2*
G04 #@! TO.N,Net-(J3-Pin_4)*
X91450000Y-111169450D03*
G04 #@! TO.P,U5,3*
G04 #@! TO.N,GND*
X99070000Y-111169450D03*
G04 #@! TO.P,U5,4*
G04 #@! TO.N,Net-(U9-GPIO27)*
X99070000Y-108629450D03*
G04 #@! TD*
D13*
G04 #@! TO.P,C4,1*
G04 #@! TO.N,Net-(U10-VO)*
X133797100Y-53770450D03*
D11*
G04 #@! TO.P,C4,2*
G04 #@! TO.N,GND*
X131797100Y-53770450D03*
G04 #@! TD*
D13*
G04 #@! TO.P,U4,1*
G04 #@! TO.N,Net-(R5-Pad2)*
X91030000Y-95464450D03*
D12*
G04 #@! TO.P,U4,2*
G04 #@! TO.N,Net-(J3-Pin_3)*
X91030000Y-98004450D03*
G04 #@! TO.P,U4,3*
G04 #@! TO.N,GND*
X98650000Y-98004450D03*
G04 #@! TO.P,U4,4*
G04 #@! TO.N,Net-(U9-GPIO26)*
X98650000Y-95464450D03*
G04 #@! TD*
D11*
G04 #@! TO.P,R45,1*
G04 #@! TO.N,Net-(Q7-B)*
X152781000Y-106983450D03*
D12*
G04 #@! TO.P,R45,2*
G04 #@! TO.N,+24V*
X152781000Y-117143450D03*
G04 #@! TD*
D11*
G04 #@! TO.P,R34,1*
G04 #@! TO.N,Net-(U1-VO)*
X140473600Y-66228050D03*
D12*
G04 #@! TO.P,R34,2*
G04 #@! TO.N,Net-(R34-Pad2)*
X140473600Y-76388050D03*
G04 #@! TD*
D13*
G04 #@! TO.P,U15,1*
G04 #@! TO.N,Net-(R36-Pad2)*
X150378000Y-80943450D03*
D12*
G04 #@! TO.P,U15,2*
G04 #@! TO.N,Net-(U9-GPIO18)*
X150378000Y-83483450D03*
G04 #@! TO.P,U15,3*
G04 #@! TO.N,GND*
X157998000Y-83483450D03*
G04 #@! TO.P,U15,4*
G04 #@! TO.N,Net-(Q5-B)*
X157998000Y-80943450D03*
G04 #@! TD*
D18*
G04 #@! TO.P,J5,1,Pin_1*
G04 #@! TO.N,Net-(J5-Pin_1)*
X152781000Y-151179450D03*
D19*
G04 #@! TO.P,J5,2,Pin_2*
G04 #@! TO.N,Net-(J5-Pin_2)*
X155321000Y-151179450D03*
G04 #@! TD*
D13*
G04 #@! TO.P,U7,1*
G04 #@! TO.N,Net-(R13-Pad2)*
X91567000Y-135050450D03*
D12*
G04 #@! TO.P,U7,2*
G04 #@! TO.N,Net-(J3-Pin_6)*
X91567000Y-137590450D03*
G04 #@! TO.P,U7,3*
G04 #@! TO.N,GND*
X99187000Y-137590450D03*
G04 #@! TO.P,U7,4*
G04 #@! TO.N,Net-(U9-GPIO2)*
X99187000Y-135050450D03*
G04 #@! TD*
D11*
G04 #@! TO.P,R25,1*
G04 #@! TO.N,Net-(J3-Pin_7)*
X112141000Y-101395450D03*
D12*
G04 #@! TO.P,R25,2*
G04 #@! TO.N,GND*
X122301000Y-101395450D03*
G04 #@! TD*
D11*
G04 #@! TO.P,R19,1*
G04 #@! TO.N,Net-(U1-VO)*
X103124000Y-119048450D03*
D12*
G04 #@! TO.P,R19,2*
G04 #@! TO.N,Net-(U9-GPIO15)*
X103124000Y-129208450D03*
G04 #@! TD*
D11*
G04 #@! TO.P,R9,1*
G04 #@! TO.N,+24V*
X87249000Y-119048450D03*
D12*
G04 #@! TO.P,R9,2*
G04 #@! TO.N,Net-(R9-Pad2)*
X87249000Y-129208450D03*
G04 #@! TD*
D11*
G04 #@! TO.P,R12,1*
G04 #@! TO.N,Net-(U1-VO)*
X109445100Y-63168450D03*
D12*
G04 #@! TO.P,R12,2*
G04 #@! TO.N,Net-(U1-ADJ)*
X99285100Y-63168450D03*
G04 #@! TD*
D11*
G04 #@! TO.P,R33,1*
G04 #@! TO.N,Net-(U1-VO)*
X140462000Y-78789450D03*
D12*
G04 #@! TO.P,R33,2*
G04 #@! TO.N,Net-(R33-Pad2)*
X140462000Y-88949450D03*
G04 #@! TD*
D11*
G04 #@! TO.P,R31,1*
G04 #@! TO.N,Net-(U10-VO)*
X155829000Y-61517450D03*
D12*
G04 #@! TO.P,R31,2*
G04 #@! TO.N,Net-(U10-ADJ)*
X145669000Y-61517450D03*
G04 #@! TD*
D13*
G04 #@! TO.P,U12,1*
G04 #@! TO.N,Net-(R33-Pad2)*
X137277000Y-88573450D03*
D12*
G04 #@! TO.P,U12,2*
G04 #@! TO.N,Net-(U9-GPIO22)*
X137277000Y-86033450D03*
G04 #@! TO.P,U12,3*
G04 #@! TO.N,GND*
X129657000Y-86033450D03*
G04 #@! TO.P,U12,4*
G04 #@! TO.N,Net-(Q2-B)*
X129657000Y-88573450D03*
G04 #@! TD*
D11*
G04 #@! TO.P,R8,1*
G04 #@! TO.N,Net-(J3-Pin_3)*
X89940000Y-102814450D03*
D12*
G04 #@! TO.P,R8,2*
G04 #@! TO.N,GND*
X100100000Y-102814450D03*
G04 #@! TD*
D14*
G04 #@! TO.P,Q1,1,E*
G04 #@! TO.N,Net-(J8-Pin_1)*
X137414000Y-94029450D03*
D15*
G04 #@! TO.P,Q1,2,B*
G04 #@! TO.N,Net-(Q1-B)*
X138684000Y-95299450D03*
G04 #@! TO.P,Q1,3,C*
G04 #@! TO.N,+24V*
X139954000Y-94029450D03*
G04 #@! TD*
D11*
G04 #@! TO.P,R11,1*
G04 #@! TO.N,Net-(J3-Pin_5)*
X90043000Y-128827450D03*
D12*
G04 #@! TO.P,R11,2*
G04 #@! TO.N,GND*
X100203000Y-128827450D03*
G04 #@! TD*
D11*
G04 #@! TO.P,R5,1*
G04 #@! TO.N,+24V*
X87110000Y-103184450D03*
D12*
G04 #@! TO.P,R5,2*
G04 #@! TO.N,Net-(R5-Pad2)*
X87110000Y-93024450D03*
G04 #@! TD*
D11*
G04 #@! TO.P,R14,1*
G04 #@! TO.N,Net-(U1-VO)*
X103124000Y-77519450D03*
D12*
G04 #@! TO.P,R14,2*
G04 #@! TO.N,Net-(U9-GPIO35)*
X103124000Y-67359450D03*
G04 #@! TD*
D11*
G04 #@! TO.P,R41,1*
G04 #@! TO.N,Net-(U1-VO)*
X138684000Y-117270450D03*
D12*
G04 #@! TO.P,R41,2*
G04 #@! TO.N,Net-(R41-Pad2)*
X138684000Y-107110450D03*
G04 #@! TD*
D11*
G04 #@! TO.P,R17,1*
G04 #@! TO.N,Net-(U1-VO)*
X102940000Y-93094450D03*
D12*
G04 #@! TO.P,R17,2*
G04 #@! TO.N,Net-(U9-GPIO26)*
X102940000Y-103254450D03*
G04 #@! TD*
D11*
G04 #@! TO.P,R32,1*
G04 #@! TO.N,Net-(U1-VO)*
X143960300Y-92066750D03*
D12*
G04 #@! TO.P,R32,2*
G04 #@! TO.N,Net-(R32-Pad2)*
X143960300Y-102226750D03*
G04 #@! TD*
D11*
G04 #@! TO.P,R24,1*
G04 #@! TO.N,Net-(J2-Pin_2)*
X111760000Y-74344450D03*
D12*
G04 #@! TO.P,R24,2*
G04 #@! TO.N,Net-(U9-GPIO39)*
X121920000Y-74344450D03*
G04 #@! TD*
D13*
G04 #@! TO.P,C2,1*
G04 #@! TO.N,Net-(U1-VO)*
X115255100Y-53643450D03*
D11*
G04 #@! TO.P,C2,2*
G04 #@! TO.N,GND*
X113255100Y-53643450D03*
G04 #@! TD*
G04 #@! TO.P,R13,1*
G04 #@! TO.N,+24V*
X87376000Y-132637450D03*
D12*
G04 #@! TO.P,R13,2*
G04 #@! TO.N,Net-(R13-Pad2)*
X87376000Y-142797450D03*
G04 #@! TD*
D13*
G04 #@! TO.P,U17,1*
G04 #@! TO.N,Net-(R41-Pad2)*
X141996000Y-107486450D03*
D12*
G04 #@! TO.P,U17,2*
G04 #@! TO.N,Net-(U9-GPIO17)*
X141996000Y-110026450D03*
G04 #@! TO.P,U17,3*
G04 #@! TO.N,GND*
X149616000Y-110026450D03*
G04 #@! TO.P,U17,4*
G04 #@! TO.N,Net-(Q7-B)*
X149616000Y-107486450D03*
G04 #@! TD*
D11*
G04 #@! TO.P,R44,1*
G04 #@! TO.N,Net-(Q6-B)*
X162363700Y-94410450D03*
D12*
G04 #@! TO.P,R44,2*
G04 #@! TO.N,+24V*
X162363700Y-104570450D03*
G04 #@! TD*
D11*
G04 #@! TO.P,R42,1*
G04 #@! TO.N,Net-(Q4-B)*
X160401000Y-66216450D03*
D12*
G04 #@! TO.P,R42,2*
G04 #@! TO.N,+24V*
X160401000Y-76376450D03*
G04 #@! TD*
D11*
G04 #@! TO.P,R29,1*
G04 #@! TO.N,Net-(U1-VO)*
X125349000Y-101903450D03*
D12*
G04 #@! TO.P,R29,2*
G04 #@! TO.N,Net-(U9-GPIO16)*
X125349000Y-91743450D03*
G04 #@! TD*
D11*
G04 #@! TO.P,R18,1*
G04 #@! TO.N,Net-(U1-VO)*
X103180000Y-106179450D03*
D12*
G04 #@! TO.P,R18,2*
G04 #@! TO.N,Net-(U9-GPIO27)*
X103180000Y-116339450D03*
G04 #@! TD*
D18*
G04 #@! TO.P,J3,1,Pin_1*
G04 #@! TO.N,Net-(J3-Pin_1)*
X80518000Y-106729450D03*
D19*
G04 #@! TO.P,J3,2,Pin_2*
G04 #@! TO.N,Net-(J3-Pin_2)*
X80518000Y-109269450D03*
G04 #@! TO.P,J3,3,Pin_3*
G04 #@! TO.N,Net-(J3-Pin_3)*
X80518000Y-111809450D03*
G04 #@! TO.P,J3,4,Pin_4*
G04 #@! TO.N,Net-(J3-Pin_4)*
X80518000Y-114349450D03*
G04 #@! TO.P,J3,5,Pin_5*
G04 #@! TO.N,Net-(J3-Pin_5)*
X80518000Y-116889450D03*
G04 #@! TO.P,J3,6,Pin_6*
G04 #@! TO.N,Net-(J3-Pin_6)*
X80518000Y-119429450D03*
G04 #@! TO.P,J3,7,Pin_7*
G04 #@! TO.N,Net-(J3-Pin_7)*
X80518000Y-121969450D03*
G04 #@! TD*
D18*
G04 #@! TO.P,J7,1,Pin_1*
G04 #@! TO.N,Net-(J7-Pin_1)*
X145669000Y-151052450D03*
D19*
G04 #@! TO.P,J7,2,Pin_2*
G04 #@! TO.N,Net-(J7-Pin_2)*
X148209000Y-151052450D03*
G04 #@! TD*
D11*
G04 #@! TO.P,R28,1*
G04 #@! TO.N,GND*
X111887000Y-78789450D03*
D12*
G04 #@! TO.P,R28,2*
G04 #@! TO.N,Net-(U9-GPIO39)*
X122047000Y-78789450D03*
G04 #@! TD*
D13*
G04 #@! TO.P,U3,1*
G04 #@! TO.N,Net-(R4-Pad2)*
X91196000Y-82721450D03*
D12*
G04 #@! TO.P,U3,2*
G04 #@! TO.N,Net-(J3-Pin_2)*
X91196000Y-85261450D03*
G04 #@! TO.P,U3,3*
G04 #@! TO.N,GND*
X98816000Y-85261450D03*
G04 #@! TO.P,U3,4*
G04 #@! TO.N,Net-(U9-GPIO25)*
X98816000Y-82721450D03*
G04 #@! TD*
D13*
G04 #@! TO.P,U16,1*
G04 #@! TO.N,Net-(R37-Pad2)*
X151959700Y-94786450D03*
D12*
G04 #@! TO.P,U16,2*
G04 #@! TO.N,Net-(U9-GPIO5)*
X151959700Y-97326450D03*
G04 #@! TO.P,U16,3*
G04 #@! TO.N,GND*
X159579700Y-97326450D03*
G04 #@! TO.P,U16,4*
G04 #@! TO.N,Net-(Q6-B)*
X159579700Y-94786450D03*
G04 #@! TD*
D11*
G04 #@! TO.P,R2,1*
G04 #@! TO.N,Net-(U1-ADJ)*
X96364100Y-63295450D03*
D12*
G04 #@! TO.P,R2,2*
G04 #@! TO.N,GND*
X86204100Y-63295450D03*
G04 #@! TD*
D11*
G04 #@! TO.P,R3,1*
G04 #@! TO.N,Net-(J3-Pin_1)*
X90043000Y-77011450D03*
D12*
G04 #@! TO.P,R3,2*
G04 #@! TO.N,GND*
X100203000Y-77011450D03*
G04 #@! TD*
D11*
G04 #@! TO.P,R16,1*
G04 #@! TO.N,Net-(U1-VO)*
X102997000Y-90346450D03*
D12*
G04 #@! TO.P,R16,2*
G04 #@! TO.N,Net-(U9-GPIO25)*
X102997000Y-80186450D03*
G04 #@! TD*
D11*
G04 #@! TO.P,R37,1*
G04 #@! TO.N,Net-(U1-VO)*
X148774700Y-104443450D03*
D12*
G04 #@! TO.P,R37,2*
G04 #@! TO.N,Net-(R37-Pad2)*
X148774700Y-94283450D03*
G04 #@! TD*
D11*
G04 #@! TO.P,R20,1*
G04 #@! TO.N,Net-(U1-VO)*
X103378000Y-132637450D03*
D12*
G04 #@! TO.P,R20,2*
G04 #@! TO.N,Net-(U9-GPIO2)*
X103378000Y-142797450D03*
G04 #@! TD*
D14*
G04 #@! TO.P,Q7,1,E*
G04 #@! TO.N,Net-(J8-Pin_7)*
X145669000Y-115111450D03*
D15*
G04 #@! TO.P,Q7,2,B*
G04 #@! TO.N,Net-(Q7-B)*
X144399000Y-113841450D03*
G04 #@! TO.P,Q7,3,C*
G04 #@! TO.N,+24V*
X143129000Y-115111450D03*
G04 #@! TD*
D11*
G04 #@! TO.P,R7,1*
G04 #@! TO.N,Net-(J3-Pin_2)*
X90043000Y-89838450D03*
D12*
G04 #@! TO.P,R7,2*
G04 #@! TO.N,GND*
X100203000Y-89838450D03*
G04 #@! TD*
D18*
G04 #@! TO.P,J6,1,Pin_1*
G04 #@! TO.N,Net-(J6-Pin_1)*
X95377000Y-150798450D03*
D19*
G04 #@! TO.P,J6,2,Pin_2*
G04 #@! TO.N,Net-(J6-Pin_2)*
X97917000Y-150798450D03*
G04 #@! TO.P,J6,3,Pin_3*
G04 #@! TO.N,Net-(J6-Pin_3)*
X100457000Y-150798450D03*
G04 #@! TO.P,J6,4,Pin_4*
G04 #@! TO.N,Net-(J6-Pin_4)*
X102997000Y-150798450D03*
G04 #@! TD*
D11*
G04 #@! TO.P,R43,1*
G04 #@! TO.N,Net-(Q5-B)*
X160909000Y-80440450D03*
D12*
G04 #@! TO.P,R43,2*
G04 #@! TO.N,+24V*
X160909000Y-90600450D03*
G04 #@! TD*
D11*
G04 #@! TO.P,R38,1*
G04 #@! TO.N,Net-(Q1-B)*
X130244300Y-102099750D03*
D12*
G04 #@! TO.P,R38,2*
G04 #@! TO.N,+24V*
X130244300Y-91939750D03*
G04 #@! TD*
D11*
G04 #@! TO.P,R40,1*
G04 #@! TO.N,Net-(Q3-B)*
X126884600Y-76388050D03*
D12*
G04 #@! TO.P,R40,2*
G04 #@! TO.N,+24V*
X126884600Y-66228050D03*
G04 #@! TD*
D13*
G04 #@! TO.P,U2,1*
G04 #@! TO.N,Net-(R1-Pad2)*
X91323000Y-69894450D03*
D12*
G04 #@! TO.P,U2,2*
G04 #@! TO.N,Net-(J3-Pin_1)*
X91323000Y-72434450D03*
G04 #@! TO.P,U2,3*
G04 #@! TO.N,GND*
X98943000Y-72434450D03*
G04 #@! TO.P,U2,4*
G04 #@! TO.N,Net-(U9-GPIO35)*
X98943000Y-69894450D03*
G04 #@! TD*
D11*
G04 #@! TO.P,R22,1*
G04 #@! TO.N,Net-(J2-Pin_3)*
X111887000Y-82726450D03*
D12*
G04 #@! TO.P,R22,2*
G04 #@! TO.N,Net-(U9-GPIO34)*
X122047000Y-82726450D03*
G04 #@! TD*
D18*
G04 #@! TO.P,J8,1,Pin_1*
G04 #@! TO.N,Net-(J8-Pin_1)*
X80391000Y-67867450D03*
D19*
G04 #@! TO.P,J8,2,Pin_2*
G04 #@! TO.N,Net-(J8-Pin_2)*
X80391000Y-70407450D03*
G04 #@! TO.P,J8,3,Pin_3*
G04 #@! TO.N,Net-(J8-Pin_3)*
X80391000Y-72947450D03*
G04 #@! TO.P,J8,4,Pin_4*
G04 #@! TO.N,Net-(J8-Pin_4)*
X80391000Y-75487450D03*
G04 #@! TO.P,J8,5,Pin_5*
G04 #@! TO.N,Net-(J8-Pin_5)*
X80391000Y-78027450D03*
G04 #@! TO.P,J8,6,Pin_6*
G04 #@! TO.N,Net-(J8-Pin_6)*
X80391000Y-80567450D03*
G04 #@! TO.P,J8,7,Pin_7*
G04 #@! TO.N,Net-(J8-Pin_7)*
X80391000Y-83107450D03*
G04 #@! TD*
D11*
G04 #@! TO.P,R39,1*
G04 #@! TO.N,Net-(Q2-B)*
X126746000Y-89076450D03*
D12*
G04 #@! TO.P,R39,2*
G04 #@! TO.N,+24V*
X126746000Y-78916450D03*
G04 #@! TD*
D13*
G04 #@! TO.P,C3,1*
G04 #@! TO.N,+24V*
X127320100Y-53770450D03*
D11*
G04 #@! TO.P,C3,2*
G04 #@! TO.N,GND*
X125320100Y-53770450D03*
G04 #@! TD*
D13*
G04 #@! TO.P,U8,1*
G04 #@! TO.N,Net-(R21-Pad2)*
X112913000Y-94278450D03*
D12*
G04 #@! TO.P,U8,2*
G04 #@! TO.N,Net-(J3-Pin_7)*
X112913000Y-96818450D03*
G04 #@! TO.P,U8,3*
G04 #@! TO.N,GND*
X120533000Y-96818450D03*
G04 #@! TO.P,U8,4*
G04 #@! TO.N,Net-(U9-GPIO16)*
X120533000Y-94278450D03*
G04 #@! TD*
D13*
G04 #@! TO.P,C1,1*
G04 #@! TO.N,+24V*
X121126000Y-53643450D03*
D11*
G04 #@! TO.P,C1,2*
G04 #@! TO.N,GND*
X119126000Y-53643450D03*
G04 #@! TD*
D18*
G04 #@! TO.P,J2,1,Pin_1*
G04 #@! TO.N,Net-(J2-Pin_1)*
X80418000Y-92929450D03*
D19*
G04 #@! TO.P,J2,2,Pin_2*
G04 #@! TO.N,Net-(J2-Pin_2)*
X80418000Y-95469450D03*
G04 #@! TO.P,J2,3,Pin_3*
G04 #@! TO.N,Net-(J2-Pin_3)*
X80418000Y-98009450D03*
G04 #@! TD*
D11*
G04 #@! TO.P,R36,1*
G04 #@! TO.N,Net-(U1-VO)*
X147193000Y-90600450D03*
D12*
G04 #@! TO.P,R36,2*
G04 #@! TO.N,Net-(R36-Pad2)*
X147193000Y-80440450D03*
G04 #@! TD*
D18*
G04 #@! TO.P,J1,1,Pin_1*
G04 #@! TO.N,Net-(J1-Pin_1)*
X87927000Y-150828450D03*
D19*
G04 #@! TO.P,J1,2,Pin_2*
G04 #@! TO.N,Net-(J1-Pin_2)*
X90467000Y-150828450D03*
G04 #@! TD*
D13*
G04 #@! TO.P,U14,1*
G04 #@! TO.N,Net-(R35-Pad2)*
X149743000Y-66719450D03*
D12*
G04 #@! TO.P,U14,2*
G04 #@! TO.N,Net-(U9-GPIO19)*
X149743000Y-69259450D03*
G04 #@! TO.P,U14,3*
G04 #@! TO.N,GND*
X157363000Y-69259450D03*
G04 #@! TO.P,U14,4*
G04 #@! TO.N,Net-(Q4-B)*
X157363000Y-66719450D03*
G04 #@! TD*
D11*
G04 #@! TO.P,R4,1*
G04 #@! TO.N,+24V*
X86995000Y-90346450D03*
D12*
G04 #@! TO.P,R4,2*
G04 #@! TO.N,Net-(R4-Pad2)*
X86995000Y-80186450D03*
G04 #@! TD*
D18*
G04 #@! TO.P,J4,1,Pin_1*
G04 #@! TO.N,+24V*
X138684000Y-151052450D03*
D19*
G04 #@! TO.P,J4,2,Pin_2*
G04 #@! TO.N,GND*
X141224000Y-151052450D03*
G04 #@! TD*
D11*
G04 #@! TO.P,R15,1*
G04 #@! TO.N,Net-(J3-Pin_6)*
X90297000Y-142416450D03*
D12*
G04 #@! TO.P,R15,2*
G04 #@! TO.N,GND*
X100457000Y-142416450D03*
G04 #@! TD*
D16*
G04 #@! TO.P,U10,1,ADJ*
G04 #@! TO.N,Net-(U10-ADJ)*
X146177000Y-53445450D03*
D17*
G04 #@! TO.P,U10,2,VO*
G04 #@! TO.N,Net-(U10-VO)*
X148717000Y-53445450D03*
G04 #@! TO.P,U10,3,VI*
G04 #@! TO.N,+24V*
X151257000Y-53445450D03*
G04 #@! TD*
D20*
G04 #@! TO.N,Net-(U9-GPIO2)*
X104457000Y-146943750D03*
G04 #@! TO.N,Net-(Q3-B)*
X132771900Y-74604150D03*
G04 #@! TO.N,GND*
X125023000Y-142580450D03*
G04 #@! TO.N,Net-(J8-Pin_2)*
X85007300Y-75023750D03*
G04 #@! TO.N,Net-(J8-Pin_1)*
X99015900Y-87132050D03*
G04 #@! TO.N,Net-(J7-Pin_2)*
X139862100Y-123334250D03*
G04 #@! TO.N,Net-(J7-Pin_1)*
X139366000Y-121795250D03*
G04 #@! TO.N,Net-(J5-Pin_2)*
X147222100Y-104255450D03*
G04 #@! TD*
D21*
G04 #@! TO.N,Net-(R13-Pad2)*
X87376000Y-140086650D02*
X87376000Y-142797450D01*
X91285300Y-136177350D02*
X87376000Y-140086650D01*
X91567000Y-136177350D02*
X91285300Y-136177350D01*
X91567000Y-135050450D02*
X91567000Y-136177350D01*
G04 #@! TO.N,Net-(R1-Pad2)*
X90196100Y-69306650D02*
X88121900Y-67232450D01*
X90196100Y-69894450D02*
X90196100Y-69306650D01*
X86995000Y-67232450D02*
X88121900Y-67232450D01*
X91323000Y-69894450D02*
X90196100Y-69894450D01*
G04 #@! TO.N,Net-(U9-GPIO17)*
X134385400Y-129880450D02*
X133702000Y-129880450D01*
X141996000Y-122269850D02*
X134385400Y-129880450D01*
X141996000Y-110026450D02*
X141996000Y-122269850D01*
G04 #@! TO.N,Net-(U9-GPIO23)*
X133702000Y-106557650D02*
X133702000Y-109560450D01*
X140081000Y-100178650D02*
X133702000Y-106557650D01*
X140785300Y-100178650D02*
X140081000Y-100178650D01*
X140785300Y-99051750D02*
X140785300Y-100178650D01*
G04 #@! TO.N,Net-(R37-Pad2)*
X150404600Y-94786450D02*
X149901600Y-94283450D01*
X151959700Y-94786450D02*
X150404600Y-94786450D01*
X148774700Y-94283450D02*
X149901600Y-94283450D01*
G04 #@! TO.N,Net-(R36-Pad2)*
X148822900Y-80943450D02*
X148319900Y-80440450D01*
X150378000Y-80943450D02*
X148822900Y-80943450D01*
X147193000Y-80440450D02*
X148319900Y-80440450D01*
G04 #@! TO.N,Net-(R35-Pad2)*
X148314900Y-66719450D02*
X147811900Y-66216450D01*
X149743000Y-66719450D02*
X148314900Y-66719450D01*
X146685000Y-66216450D02*
X147811900Y-66216450D01*
G04 #@! TO.N,Net-(R34-Pad2)*
X138811700Y-75853050D02*
X139346700Y-76388050D01*
X137449600Y-75853050D02*
X138811700Y-75853050D01*
X140473600Y-76388050D02*
X139346700Y-76388050D01*
G04 #@! TO.N,Net-(R32-Pad2)*
X142547200Y-102226750D02*
X143960300Y-102226750D01*
X141912200Y-101591750D02*
X142547200Y-102226750D01*
X140785300Y-101591750D02*
X141912200Y-101591750D01*
G04 #@! TO.N,Net-(U10-ADJ)*
X145669000Y-61517450D02*
X142875000Y-61517450D01*
G04 #@! TO.N,Net-(U9-GPIO16)*
X121687100Y-94278450D02*
X124222100Y-91743450D01*
X120533000Y-94278450D02*
X121687100Y-94278450D01*
X125349000Y-91743450D02*
X124222100Y-91743450D01*
G04 #@! TO.N,Net-(R21-Pad2)*
X110251000Y-92743350D02*
X109220000Y-92743350D01*
X111786100Y-94278450D02*
X110251000Y-92743350D01*
X112913000Y-94278450D02*
X111786100Y-94278450D01*
X109220000Y-91616450D02*
X109220000Y-92743350D01*
G04 #@! TO.N,Net-(U9-GPIO25)*
X99942900Y-82113650D02*
X101870100Y-80186450D01*
X99942900Y-82721450D02*
X99942900Y-82113650D01*
X102997000Y-80186450D02*
X101870100Y-80186450D01*
X98816000Y-82721450D02*
X99942900Y-82721450D01*
G04 #@! TO.N,Net-(U9-GPIO2)*
X124258700Y-146943750D02*
X104457000Y-146943750D01*
X133702000Y-137500450D02*
X124258700Y-146943750D01*
G04 #@! TO.N,Net-(U9-GPIO35)*
X100069900Y-69286650D02*
X101997100Y-67359450D01*
X100069900Y-69894450D02*
X100069900Y-69286650D01*
X103124000Y-67359450D02*
X101997100Y-67359450D01*
X98943000Y-69894450D02*
X100069900Y-69894450D01*
G04 #@! TO.N,Net-(R5-Pad2)*
X89903100Y-94690650D02*
X88236900Y-93024450D01*
X89903100Y-95464450D02*
X89903100Y-94690650D01*
X87110000Y-93024450D02*
X88236900Y-93024450D01*
X91030000Y-95464450D02*
X89903100Y-95464450D01*
G04 #@! TO.N,Net-(R4-Pad2)*
X90069100Y-82133650D02*
X88121900Y-80186450D01*
X90069100Y-82721450D02*
X90069100Y-82133650D01*
X86995000Y-80186450D02*
X88121900Y-80186450D01*
X91196000Y-82721450D02*
X90069100Y-82721450D01*
G04 #@! TO.N,Net-(J8-Pin_7)*
X78953200Y-81669650D02*
X80391000Y-83107450D01*
X78953200Y-66633350D02*
X78953200Y-81669650D01*
X79483600Y-66102950D02*
X78953200Y-66633350D01*
X111322900Y-66102950D02*
X79483600Y-66102950D01*
X111420300Y-66200350D02*
X111322900Y-66102950D01*
X123205300Y-66200350D02*
X111420300Y-66200350D01*
X124311800Y-65093850D02*
X123205300Y-66200350D01*
X134934200Y-65093850D02*
X124311800Y-65093850D01*
X137757400Y-67917050D02*
X134934200Y-65093850D01*
X140274500Y-67917050D02*
X137757400Y-67917050D01*
X142813900Y-70456450D02*
X140274500Y-67917050D01*
X152594700Y-70456450D02*
X142813900Y-70456450D01*
X163527000Y-81388750D02*
X152594700Y-70456450D01*
X163527000Y-98588050D02*
X163527000Y-81388750D01*
X147003600Y-115111450D02*
X163527000Y-98588050D01*
X145669000Y-115111450D02*
X147003600Y-115111450D01*
G04 #@! TO.N,Net-(J8-Pin_6)*
X155321000Y-102226750D02*
X155321000Y-103153650D01*
X152324600Y-103153650D02*
X155321000Y-103153650D01*
X147639800Y-98468850D02*
X152324600Y-103153650D01*
X147639800Y-92676450D02*
X147639800Y-98468850D01*
X148345700Y-91970550D02*
X147639800Y-92676450D01*
X148345700Y-90108750D02*
X148345700Y-91970550D01*
X147663400Y-89426450D02*
X148345700Y-90108750D01*
X145161300Y-89426450D02*
X147663400Y-89426450D01*
X144381300Y-90206450D02*
X145161300Y-89426450D01*
X126221400Y-90206450D02*
X144381300Y-90206450D01*
X125399000Y-89384050D02*
X126221400Y-90206450D01*
X125399000Y-87895850D02*
X125399000Y-89384050D01*
X113600200Y-76097050D02*
X125399000Y-87895850D01*
X113600200Y-74534050D02*
X113600200Y-76097050D01*
X112277200Y-73211050D02*
X113600200Y-74534050D01*
X111026800Y-73211050D02*
X112277200Y-73211050D01*
X108353300Y-75884550D02*
X111026800Y-73211050D01*
X85073900Y-75884550D02*
X108353300Y-75884550D01*
X80391000Y-80567450D02*
X85073900Y-75884550D01*
G04 #@! TO.N,Net-(J8-Pin_5)*
X153612300Y-87057050D02*
X153612300Y-88383750D01*
X152185800Y-85630550D02*
X153612300Y-87057050D01*
X144184900Y-85630550D02*
X152185800Y-85630550D01*
X136072700Y-77518350D02*
X144184900Y-85630550D01*
X122367500Y-77518350D02*
X136072700Y-77518350D01*
X117150400Y-72301250D02*
X122367500Y-77518350D01*
X108645900Y-72301250D02*
X117150400Y-72301250D01*
X106680000Y-74267150D02*
X108645900Y-72301250D01*
X84151300Y-74267150D02*
X106680000Y-74267150D01*
X80391000Y-78027450D02*
X84151300Y-74267150D01*
G04 #@! TO.N,Net-(J8-Pin_4)*
X152977300Y-74286750D02*
X152977300Y-75213650D01*
X82232000Y-73646450D02*
X80391000Y-75487450D01*
X102798700Y-73646450D02*
X82232000Y-73646450D01*
X104601800Y-71843350D02*
X102798700Y-73646450D01*
X131046900Y-71843350D02*
X104601800Y-71843350D01*
X133665900Y-74462350D02*
X131046900Y-71843350D01*
X143825200Y-74462350D02*
X133665900Y-74462350D01*
X144576500Y-75213650D02*
X143825200Y-74462350D01*
X152977300Y-75213650D02*
X144576500Y-75213650D01*
G04 #@! TO.N,Net-(J8-Pin_3)*
X132388500Y-71164450D02*
X134181300Y-69371650D01*
X82174000Y-71164450D02*
X132388500Y-71164450D01*
X80391000Y-72947450D02*
X82174000Y-71164450D01*
X134181300Y-68444750D02*
X134181300Y-69371650D01*
G04 #@! TO.N,Net-(J3-Pin_7)*
X108939500Y-104596950D02*
X112141000Y-101395450D01*
X99638600Y-104596950D02*
X108939500Y-104596950D01*
X89334900Y-114900650D02*
X99638600Y-104596950D01*
X87004800Y-114900650D02*
X89334900Y-114900650D01*
X83776200Y-118129250D02*
X87004800Y-114900650D01*
X83776200Y-118711250D02*
X83776200Y-118129250D01*
X80518000Y-121969450D02*
X83776200Y-118711250D01*
G04 #@! TO.N,Net-(J3-Pin_5)*
X80636400Y-124123450D02*
X91323000Y-124123450D01*
X79051900Y-122538950D02*
X80636400Y-124123450D01*
X79051900Y-118355550D02*
X79051900Y-122538950D01*
X80518000Y-116889450D02*
X79051900Y-118355550D01*
G04 #@! TO.N,Net-(J3-Pin_4)*
X87143100Y-114349450D02*
X90323100Y-111169450D01*
X80518000Y-114349450D02*
X87143100Y-114349450D01*
X91450000Y-111169450D02*
X90323100Y-111169450D01*
G04 #@! TO.N,Net-(J3-Pin_3)*
X88147500Y-104606950D02*
X89940000Y-102814450D01*
X87112600Y-104606950D02*
X88147500Y-104606950D01*
X85252800Y-106466750D02*
X87112600Y-104606950D01*
X85252800Y-107074650D02*
X85252800Y-106466750D01*
X80518000Y-111809450D02*
X85252800Y-107074650D01*
G04 #@! TO.N,Net-(J1-Pin_2)*
X106393400Y-126859050D02*
X108452000Y-124800450D01*
X106393400Y-133530750D02*
X106393400Y-126859050D01*
X90467000Y-149457150D02*
X106393400Y-133530750D01*
X90467000Y-150828450D02*
X90467000Y-149457150D01*
G04 #@! TO.N,Net-(J1-Pin_1)*
X87927000Y-150828450D02*
X87927000Y-149401550D01*
X88997200Y-149401550D02*
X87927000Y-149401550D01*
X101402100Y-136996650D02*
X88997200Y-149401550D01*
X101402100Y-129310350D02*
X101402100Y-136996650D01*
X108452000Y-122260450D02*
X101402100Y-129310350D01*
G04 #@! TO.N,Net-(U10-VO)*
X133797100Y-53770450D02*
X134924000Y-53770450D01*
X148717000Y-54781550D02*
X148717000Y-53445450D01*
X135935100Y-54781550D02*
X148717000Y-54781550D01*
X134924000Y-53770450D02*
X135935100Y-54781550D01*
X149093100Y-54781550D02*
X155829000Y-61517450D01*
X148717000Y-54781550D02*
X149093100Y-54781550D01*
G04 #@! TO.N,Net-(Q6-B)*
X161987700Y-94786450D02*
X162363700Y-94410450D01*
X159579700Y-94786450D02*
X161987700Y-94786450D01*
X158452800Y-95628050D02*
X158452800Y-94786450D01*
X154051000Y-100029850D02*
X158452800Y-95628050D01*
X154051000Y-100956750D02*
X154051000Y-100029850D01*
X159579700Y-94786450D02*
X158452800Y-94786450D01*
G04 #@! TO.N,Net-(R33-Pad2)*
X138959100Y-88573450D02*
X139335100Y-88949450D01*
X137277000Y-88573450D02*
X138959100Y-88573450D01*
X140462000Y-88949450D02*
X139335100Y-88949450D01*
G04 #@! TO.N,Net-(Q5-B)*
X160406000Y-80943450D02*
X160909000Y-80440450D01*
X157998000Y-80943450D02*
X160406000Y-80943450D01*
G04 #@! TO.N,Net-(Q4-B)*
X159898000Y-66719450D02*
X160401000Y-66216450D01*
X157363000Y-66719450D02*
X159898000Y-66719450D01*
G04 #@! TO.N,Net-(Q3-B)*
X127419600Y-75853050D02*
X126884600Y-76388050D01*
X129829600Y-75853050D02*
X127419600Y-75853050D01*
X129829600Y-75853050D02*
X130956500Y-75853050D01*
X132205400Y-74604150D02*
X132771900Y-74604150D01*
X130956500Y-75853050D02*
X132205400Y-74604150D01*
G04 #@! TO.N,Net-(Q2-B)*
X127249000Y-88573450D02*
X126746000Y-89076450D01*
X129657000Y-88573450D02*
X127249000Y-88573450D01*
X130783900Y-87616450D02*
X130783900Y-88573450D01*
X135128000Y-83272350D02*
X130783900Y-87616450D01*
X135128000Y-82345450D02*
X135128000Y-83272350D01*
X129657000Y-88573450D02*
X130783900Y-88573450D01*
G04 #@! TO.N,Net-(Q1-B)*
X134292200Y-100618150D02*
X134292200Y-101591750D01*
X138684000Y-96226350D02*
X134292200Y-100618150D01*
X138684000Y-95299450D02*
X138684000Y-96226350D01*
X133165300Y-101591750D02*
X134292200Y-101591750D01*
G04 #@! TO.N,Net-(R6-Pad2)*
X90323100Y-108115650D02*
X88336900Y-106129450D01*
X90323100Y-108629450D02*
X90323100Y-108115650D01*
X87210000Y-106129450D02*
X88336900Y-106129450D01*
X91450000Y-108629450D02*
X90323100Y-108629450D01*
G04 #@! TO.N,Net-(Q7-B)*
X148700200Y-108613350D02*
X149616000Y-108613350D01*
X144399000Y-112914550D02*
X148700200Y-108613350D01*
X149616000Y-107486450D02*
X149616000Y-108613350D01*
X144399000Y-113841450D02*
X144399000Y-112914550D01*
G04 #@! TO.N,Net-(U1-VO)*
X145426600Y-90600450D02*
X143960300Y-92066750D01*
X147193000Y-90600450D02*
X145426600Y-90600450D01*
X102004500Y-107354950D02*
X103180000Y-106179450D01*
X102004500Y-117928950D02*
X102004500Y-107354950D01*
X103124000Y-119048450D02*
X102004500Y-117928950D01*
X144461700Y-108756450D02*
X148774700Y-104443450D01*
X141625800Y-108756450D02*
X144461700Y-108756450D01*
X138684000Y-111698250D02*
X141625800Y-108756450D01*
X138684000Y-117270450D02*
X138684000Y-111698250D01*
X125349000Y-101903450D02*
X125349000Y-103246550D01*
X122416100Y-106179450D02*
X103180000Y-106179450D01*
X125349000Y-103246550D02*
X122416100Y-106179450D01*
X139771900Y-97449050D02*
X141845500Y-97449050D01*
X133974400Y-103246550D02*
X139771900Y-97449050D01*
X125349000Y-103246550D02*
X133974400Y-103246550D01*
X143960300Y-95334250D02*
X141845500Y-97449050D01*
X143960300Y-92066750D02*
X143960300Y-95334250D01*
X141845500Y-97514250D02*
X148774700Y-104443450D01*
X141845500Y-97449050D02*
X141845500Y-97514250D01*
X144272000Y-78789450D02*
X140462000Y-78789450D01*
X146685000Y-76376450D02*
X144272000Y-78789450D01*
G04 #@! TO.N,Net-(R41-Pad2)*
X140186900Y-107486450D02*
X139810900Y-107110450D01*
X141996000Y-107486450D02*
X140186900Y-107486450D01*
X138684000Y-107110450D02*
X139810900Y-107110450D01*
G04 #@! TO.N,GND*
X133165300Y-99051750D02*
X132038400Y-99051750D01*
X98650000Y-98004450D02*
X98650000Y-96877550D01*
X99176500Y-122996550D02*
X98943000Y-122996550D01*
X100210000Y-121963050D02*
X99176500Y-122996550D01*
X100210000Y-115909450D02*
X100210000Y-121963050D01*
X98943000Y-124123450D02*
X98943000Y-122996550D01*
X100323800Y-130075150D02*
X100203000Y-129954350D01*
X100323800Y-135608450D02*
X100323800Y-130075150D01*
X99468700Y-136463550D02*
X100323800Y-135608450D01*
X99187000Y-136463550D02*
X99468700Y-136463550D01*
X99187000Y-137590450D02*
X99187000Y-136463550D01*
X100203000Y-128827450D02*
X100203000Y-129954350D01*
X131797100Y-53770450D02*
X130670200Y-54897350D01*
X130670200Y-58345750D02*
X132715000Y-60390550D01*
X130670200Y-54897350D02*
X130670200Y-58345750D01*
X113255100Y-53784150D02*
X113255100Y-53643450D01*
X114241300Y-54770350D02*
X113255100Y-53784150D01*
X119126000Y-54770350D02*
X114241300Y-54770350D01*
X119126000Y-53643450D02*
X119126000Y-54770350D01*
X124443700Y-54770350D02*
X125320100Y-53893950D01*
X119126000Y-54770350D02*
X124443700Y-54770350D01*
X126323500Y-54897350D02*
X125320100Y-53893950D01*
X130670200Y-54897350D02*
X126323500Y-54897350D01*
X125320100Y-53893950D02*
X125320100Y-53770450D01*
X132715000Y-61517450D02*
X132715000Y-60953950D01*
X132715000Y-60953950D02*
X132715000Y-60390550D01*
X157363000Y-69259450D02*
X156236100Y-69259450D01*
X139226200Y-67465150D02*
X132715000Y-60953950D01*
X140687000Y-67465150D02*
X139226200Y-67465150D01*
X141137400Y-67915550D02*
X140687000Y-67465150D01*
X154892200Y-67915550D02*
X141137400Y-67915550D01*
X156236100Y-69259450D02*
X154892200Y-67915550D01*
X151376600Y-110026450D02*
X149616000Y-110026450D01*
X159579700Y-101823350D02*
X151376600Y-110026450D01*
X159579700Y-97326450D02*
X159579700Y-101823350D01*
X100203000Y-95606250D02*
X100203000Y-89838450D01*
X98931700Y-96877550D02*
X100203000Y-95606250D01*
X98650000Y-96877550D02*
X98931700Y-96877550D01*
X100203000Y-89838450D02*
X101329900Y-89838450D01*
X129805100Y-96818450D02*
X120533000Y-96818450D01*
X132038400Y-99051750D02*
X129805100Y-96818450D01*
X120533000Y-96818450D02*
X119406100Y-96818450D01*
X119406100Y-96818450D02*
X111083800Y-88496050D01*
X111647200Y-87932650D02*
X111083800Y-88496050D01*
X111647200Y-87792250D02*
X111647200Y-87932650D01*
X112014000Y-87425450D02*
X111647200Y-87792250D01*
X101948800Y-89219550D02*
X101329900Y-89838450D01*
X110360300Y-89219550D02*
X101948800Y-89219550D01*
X111083800Y-88496050D02*
X110360300Y-89219550D01*
X132372900Y-143909550D02*
X133702000Y-142580450D01*
X132372900Y-145685750D02*
X132372900Y-143909550D01*
X133754200Y-147067050D02*
X132372900Y-145685750D01*
X137416800Y-147067050D02*
X133754200Y-147067050D01*
X141224000Y-150874250D02*
X137416800Y-147067050D01*
X141224000Y-151052450D02*
X141224000Y-150874250D01*
X125023000Y-142580450D02*
X108452000Y-142580450D01*
X102343400Y-141656950D02*
X101583900Y-142416450D01*
X107528500Y-141656950D02*
X102343400Y-141656950D01*
X108452000Y-142580450D02*
X107528500Y-141656950D01*
X100457000Y-142416450D02*
X101583900Y-142416450D01*
G04 #@! TO.N,+24V*
X136398000Y-81075450D02*
X135471100Y-81075450D01*
X119976900Y-52494350D02*
X121126000Y-53643450D01*
X102775600Y-52494350D02*
X119976900Y-52494350D01*
X101611500Y-53658450D02*
X102775600Y-52494350D01*
X100332100Y-53658450D02*
X101611500Y-53658450D01*
X151072300Y-88383750D02*
X151999200Y-88383750D01*
X136937400Y-91939750D02*
X130244300Y-91939750D01*
X139027100Y-94029450D02*
X136937400Y-91939750D01*
X136436400Y-68444750D02*
X135794400Y-68444750D01*
X133312100Y-78916450D02*
X135471100Y-81075450D01*
X126746000Y-78916450D02*
X133312100Y-78916450D01*
X152781000Y-99271450D02*
X152781000Y-102226750D01*
X154215900Y-97836550D02*
X152781000Y-99271450D01*
X154215900Y-90600450D02*
X154215900Y-97836550D01*
X151999200Y-88383750D02*
X154215900Y-90600450D01*
X154215900Y-90600450D02*
X160909000Y-90600450D01*
X139954000Y-94029450D02*
X139669100Y-94029450D01*
X139669100Y-94029450D02*
X139027100Y-94029450D01*
X123265700Y-52630650D02*
X122252900Y-53643450D01*
X126180300Y-52630650D02*
X123265700Y-52630650D01*
X127320100Y-53770450D02*
X126180300Y-52630650D01*
X121126000Y-53643450D02*
X122252900Y-53643450D01*
X133577700Y-66228050D02*
X135794400Y-68444750D01*
X126884600Y-66228050D02*
X133577700Y-66228050D01*
X146087900Y-117143450D02*
X152781000Y-117143450D01*
X144055900Y-115111450D02*
X146087900Y-117143450D01*
X143129000Y-115111450D02*
X144055900Y-115111450D01*
X136436400Y-68444750D02*
X136721300Y-68444750D01*
X149126400Y-73902750D02*
X149510400Y-74286750D01*
X143106200Y-73902750D02*
X149126400Y-73902750D01*
X137648200Y-68444750D02*
X143106200Y-73902750D01*
X136721300Y-68444750D02*
X137648200Y-68444750D01*
X150437300Y-74286750D02*
X149510400Y-74286750D01*
X110664100Y-100236050D02*
X109220000Y-101680150D01*
X130183300Y-100236050D02*
X110664100Y-100236050D01*
X132665900Y-102718650D02*
X130183300Y-100236050D01*
X133836600Y-102718650D02*
X132665900Y-102718650D01*
X139669100Y-96886150D02*
X133836600Y-102718650D01*
X139669100Y-94029450D02*
X139669100Y-96886150D01*
X109220000Y-101680150D02*
X109220000Y-101776450D01*
X85938600Y-99004450D02*
X88614300Y-101680150D01*
X85938600Y-91402850D02*
X85938600Y-99004450D01*
X86995000Y-90346450D02*
X85938600Y-91402850D01*
X109220000Y-101680150D02*
X88614300Y-101680150D01*
X88614300Y-101680150D02*
X87110000Y-103184450D01*
G04 #@! TO.N,Net-(J8-Pin_2)*
X121098500Y-81075450D02*
X133858000Y-81075450D01*
X112782200Y-72759150D02*
X121098500Y-81075450D01*
X110839500Y-72759150D02*
X112782200Y-72759150D01*
X108574900Y-75023750D02*
X110839500Y-72759150D01*
X85007300Y-75023750D02*
X108574900Y-75023750D01*
G04 #@! TO.N,Net-(J8-Pin_1)*
X108120500Y-87132050D02*
X99015900Y-87132050D01*
X108969100Y-86283450D02*
X108120500Y-87132050D01*
X112603100Y-86283450D02*
X108969100Y-86283450D01*
X116893900Y-90574250D02*
X112603100Y-86283450D01*
X125950100Y-90574250D02*
X116893900Y-90574250D01*
X129405300Y-94029450D02*
X125950100Y-90574250D01*
X137414000Y-94029450D02*
X129405300Y-94029450D01*
G04 #@! TO.N,Net-(J7-Pin_2)*
X139855800Y-123334250D02*
X139862100Y-123334250D01*
X133702000Y-117180450D02*
X139855800Y-123334250D01*
G04 #@! TO.N,Net-(J7-Pin_1)*
X139366000Y-120304450D02*
X139366000Y-121795250D01*
X133702000Y-114640450D02*
X139366000Y-120304450D01*
G04 #@! TO.N,Net-(J6-Pin_1)*
X99986600Y-146188850D02*
X95377000Y-150798450D01*
X104928300Y-146188850D02*
X99986600Y-146188850D01*
X105212100Y-146472650D02*
X104928300Y-146188850D01*
X122189800Y-146472650D02*
X105212100Y-146472650D01*
X133702000Y-134960450D02*
X122189800Y-146472650D01*
G04 #@! TO.N,Net-(J2-Pin_3)*
X108219100Y-86394350D02*
X111887000Y-82726450D01*
X96162800Y-86394350D02*
X108219100Y-86394350D01*
X94771100Y-87786050D02*
X96162800Y-86394350D01*
X87939400Y-87786050D02*
X94771100Y-87786050D01*
X85019100Y-90706350D02*
X87939400Y-87786050D01*
X85019100Y-93408350D02*
X85019100Y-90706350D01*
X80418000Y-98009450D02*
X85019100Y-93408350D01*
G04 #@! TO.N,Net-(J2-Pin_2)*
X80576300Y-95469450D02*
X80418000Y-95469450D01*
X84036800Y-92008950D02*
X80576300Y-95469450D01*
X84036800Y-91025050D02*
X84036800Y-92008950D01*
X88673500Y-86388350D02*
X84036800Y-91025050D01*
X93116800Y-86388350D02*
X88673500Y-86388350D01*
X100631600Y-78873550D02*
X93116800Y-86388350D01*
X107230900Y-78873550D02*
X100631600Y-78873550D01*
X111760000Y-74344450D02*
X107230900Y-78873550D01*
G04 #@! TO.N,Net-(J2-Pin_1)*
X80418000Y-92929450D02*
X80418000Y-91502550D01*
X78490300Y-89574850D02*
X80418000Y-91502550D01*
X78490300Y-66455150D02*
X78490300Y-89574850D01*
X79872000Y-65073450D02*
X78490300Y-66455150D01*
X111887000Y-65073450D02*
X79872000Y-65073450D01*
G04 #@! TO.N,Net-(J5-Pin_2)*
X147222000Y-104255450D02*
X147222100Y-104255450D01*
X147222000Y-103828250D02*
X147222000Y-104255450D01*
X141307800Y-97914050D02*
X147222000Y-103828250D01*
X140329300Y-97914050D02*
X141307800Y-97914050D01*
X128682900Y-109560450D02*
X140329300Y-97914050D01*
X108452000Y-109560450D02*
X128682900Y-109560450D01*
G04 #@! TO.N,Net-(J5-Pin_1)*
X145295100Y-145120450D02*
X133702000Y-145120450D01*
X151354100Y-151179450D02*
X145295100Y-145120450D01*
X152781000Y-151179450D02*
X151354100Y-151179450D01*
G04 #@! TD*
M02*
